<svg width="192" height="192" viewBox="0 0 192 192" fill="none" xmlns="http://www.w3.org/2000/svg">
<path d="M112.101 67.2011C109.587 67.2011 107.074 67.9947 105.09 69.3175L89.746 53.8413C91.0688 51.8571 91.8624 49.4762 91.8624 46.8307C91.8624 39.8201 86.1746 34 79.0317 34C71.8889 34 66.2011 39.6878 66.2011 46.8307C66.2011 49.3439 66.9947 51.8571 68.3175 53.8413L52.8413 69.1852C50.8571 67.8624 48.4762 67.0688 45.8307 67.0688C38.8201 67.0688 33 72.7566 33 79.8995C33 87.0423 38.6878 92.7302 45.8307 92.7302C52.9735 92.7302 58.6614 87.0423 58.6614 79.8995C58.6614 77.3862 57.8677 74.873 56.545 72.8889L71.8889 57.545C73.873 58.8677 76.254 59.6614 78.8995 59.6614C81.4127 59.6614 83.9259 58.8677 85.9101 57.545L101.254 72.8889C99.9312 74.873 99.1376 77.254 99.1376 79.8995C99.1376 86.9101 104.825 92.7302 111.968 92.7302C118.979 92.7302 124.799 87.0423 124.799 79.8995C124.799 72.7566 119.111 67.2011 112.101 67.2011ZM145.169 100.27C138.159 100.27 132.339 105.958 132.339 113.101C132.339 115.614 133.132 118.127 134.455 120.111L118.979 135.323C116.995 134 114.614 133.206 111.968 133.206C109.455 133.206 106.942 134 104.958 135.323L89.746 119.979C91.0688 117.995 91.8624 115.614 91.8624 112.968C91.8624 105.958 86.1746 100.138 79.0317 100.138C71.8889 100.138 66.2011 105.825 66.2011 112.968C66.2011 119.979 71.8889 125.799 79.0317 125.799C81.545 125.799 84.0582 125.005 86.0423 123.683L101.386 139.026C100.063 141.011 99.2698 143.392 99.2698 146.037C99.2698 153.048 104.958 158.868 112.101 158.868C119.111 158.868 124.931 153.18 124.931 146.037C124.931 143.524 124.138 141.011 122.815 139.026L138.159 123.683C140.143 125.005 142.524 125.799 145.169 125.799C152.18 125.799 158 120.111 158 112.968C157.868 105.958 152.18 100.27 145.169 100.27Z" fill="#FFD009"/>
<path d="M79.0317 133.339C76.5185 133.339 74.0053 134.132 72.0212 135.455L56.6772 119.979C58 117.995 58.7937 115.614 58.7937 112.968C58.7937 110.455 58 107.942 56.6772 105.958L72.0212 90.6138C74.0053 91.9365 76.3862 92.7302 79.0317 92.7302C86.0423 92.7302 91.8624 87.0423 91.8624 79.8995C91.8624 72.7566 86.1746 67.0688 79.0317 67.0688C71.8889 67.0688 66.2011 72.7566 66.2011 79.8995C66.2011 82.4127 66.9947 84.9259 68.3175 86.9101L52.8413 102.254C50.8571 100.931 48.4762 100.138 45.8307 100.138C38.8201 100.138 33 105.825 33 112.968C33 119.979 38.6878 125.799 45.8307 125.799C48.3439 125.799 50.8571 125.005 52.8413 123.683L68.1852 139.026C66.8624 141.011 66.0688 143.392 66.0688 146.037C66.0688 153.048 71.7566 158.868 78.8995 158.868C86.0423 158.868 91.7302 153.18 91.7302 146.037C91.7302 139.026 86.0423 133.339 79.0317 133.339ZM145.169 67.2011C142.656 67.2011 140.143 67.9947 138.159 69.3175L122.815 53.8413C124.138 51.8571 124.931 49.4762 124.931 46.8307C124.931 39.8201 119.243 34 112.101 34C105.09 34 99.2698 39.6878 99.2698 46.8307C99.2698 53.9735 104.958 59.6614 112.101 59.6614C114.614 59.6614 117.127 58.8677 119.111 57.545L134.455 72.8889C133.132 74.873 132.339 77.254 132.339 79.8995C132.339 82.4127 133.132 84.9259 134.455 86.9101L118.979 102.254C116.995 100.931 114.614 100.138 111.968 100.138C104.958 100.138 99.1376 105.825 99.1376 112.968C99.1376 119.979 104.825 125.799 111.968 125.799C118.979 125.799 124.799 120.111 124.799 112.968C124.799 110.455 124.005 107.942 122.683 105.958L138.026 90.6138C140.011 91.9365 142.392 92.7302 145.037 92.7302C152.048 92.7302 157.868 87.0423 157.868 79.8995C157.868 72.7566 152.18 67.2011 145.169 67.2011Z" fill="#FFD009"/>
</svg>
