<svg width="256" height="256" viewBox="0 0 256 256" fill="none" xmlns="http://www.w3.org/2000/svg">
<path d="M150.577 88.1534C147.159 88.1534 143.741 89.2328 141.042 91.0317L120.175 69.9841C121.974 67.2857 123.053 64.0476 123.053 60.4497C123.053 50.9153 115.317 43 105.603 43C95.8889 43 88.1534 50.7355 88.1534 60.4497C88.1534 63.8677 89.2328 67.2857 91.0318 69.9841L69.9841 90.8519C67.2857 89.0529 64.0476 87.9735 60.4497 87.9735C50.9153 87.9735 43 95.709 43 105.423C43 115.138 50.7355 122.873 60.4497 122.873C70.164 122.873 77.8995 115.138 77.8995 105.423C77.8995 102.005 76.8201 98.5873 75.0212 95.8889L95.8889 75.0212C98.5873 76.8201 101.825 77.8995 105.423 77.8995C108.841 77.8995 112.259 76.8201 114.958 75.0212L135.825 95.8889C134.026 98.5873 132.947 101.825 132.947 105.423C132.947 114.958 140.683 122.873 150.397 122.873C159.931 122.873 167.847 115.138 167.847 105.423C167.847 95.709 160.111 88.1534 150.577 88.1534ZM195.55 133.127C186.016 133.127 178.101 140.862 178.101 150.577C178.101 153.995 179.18 157.413 180.979 160.111L159.931 180.799C157.233 179 153.995 177.921 150.397 177.921C146.979 177.921 143.561 179 140.862 180.799L120.175 159.931C121.974 157.233 123.053 153.995 123.053 150.397C123.053 140.862 115.317 132.947 105.603 132.947C95.8889 132.947 88.1534 140.683 88.1534 150.397C88.1534 159.931 95.8889 167.847 105.603 167.847C109.021 167.847 112.439 166.767 115.138 164.968L136.005 185.836C134.206 188.534 133.127 191.772 133.127 195.37C133.127 204.905 140.862 212.82 150.577 212.82C160.111 212.82 168.026 205.085 168.026 195.37C168.026 191.952 166.947 188.534 165.148 185.836L186.016 164.968C188.714 166.767 191.952 167.847 195.55 167.847C205.085 167.847 213 160.111 213 150.397C212.82 140.862 205.085 133.127 195.55 133.127Z" fill="#FFD009"/>
<path d="M105.603 178.101C102.185 178.101 98.7672 179.18 96.0688 180.979L75.2011 159.931C77 157.233 78.0794 153.995 78.0794 150.397C78.0794 146.979 77 143.561 75.2011 140.862L96.0688 119.995C98.7672 121.794 102.005 122.873 105.603 122.873C115.138 122.873 123.053 115.138 123.053 105.423C123.053 95.709 115.317 87.9735 105.603 87.9735C95.8889 87.9735 88.1534 95.709 88.1534 105.423C88.1534 108.841 89.2328 112.259 91.0317 114.958L69.9841 135.825C67.2857 134.026 64.0476 132.947 60.4497 132.947C50.9153 132.947 43 140.683 43 150.397C43 159.931 50.7355 167.847 60.4497 167.847C63.8677 167.847 67.2857 166.767 69.9841 164.968L90.8519 185.836C89.0529 188.534 87.9735 191.772 87.9735 195.37C87.9735 204.905 95.709 212.82 105.423 212.82C115.138 212.82 122.873 205.085 122.873 195.37C122.873 185.836 115.138 178.101 105.603 178.101ZM195.55 88.1534C192.132 88.1534 188.714 89.2328 186.016 91.0317L165.148 69.9841C166.947 67.2857 168.026 64.0476 168.026 60.4497C168.026 50.9153 160.291 43 150.577 43C141.042 43 133.127 50.7355 133.127 60.4497C133.127 70.164 140.862 77.8995 150.577 77.8995C153.995 77.8995 157.413 76.8201 160.111 75.0212L180.979 95.8889C179.18 98.5873 178.101 101.825 178.101 105.423C178.101 108.841 179.18 112.259 180.979 114.958L159.931 135.825C157.233 134.026 153.995 132.947 150.397 132.947C140.862 132.947 132.947 140.683 132.947 150.397C132.947 159.931 140.683 167.847 150.397 167.847C159.931 167.847 167.847 160.111 167.847 150.397C167.847 146.979 166.767 143.561 164.968 140.862L185.836 119.995C188.534 121.794 191.772 122.873 195.37 122.873C204.905 122.873 212.82 115.138 212.82 105.423C212.82 95.709 205.085 88.1534 195.55 88.1534Z" fill="#FFD009"/>
</svg>
