<svg width="100" height="100" viewBox="0 0 100 100" fill="none" xmlns="http://www.w3.org/2000/svg">
<g clip-path="url(#clip0_753_88)">
<path d="M63.6591 27.2783C61.6662 27.2783 59.6733 27.9076 58.1 28.9565L45.9329 16.6845C46.9818 15.1112 47.6111 13.2232 47.6111 11.1254C47.6111 5.56628 43.1009 0.951172 37.4369 0.951172C31.7729 0.951172 27.2627 5.46139 27.2627 11.1254C27.2627 13.1183 27.892 15.1112 28.9409 16.6845L16.6689 28.8516C15.0955 27.8027 13.2075 27.1734 11.1098 27.1734C5.55066 27.1734 0.935547 31.6836 0.935547 37.3476C0.935547 43.0116 5.44577 47.5218 11.1098 47.5218C16.7738 47.5218 21.284 43.0116 21.284 37.3476C21.284 35.3547 20.6547 33.3618 19.6058 31.7885L31.7729 19.6214C33.3462 20.6703 35.2342 21.2996 37.332 21.2996C39.3249 21.2996 41.3178 20.6703 42.8911 19.6214L55.0582 31.7885C54.0093 33.3618 53.38 35.2498 53.38 37.3476C53.38 42.9067 57.8902 47.5218 63.5542 47.5218C69.1133 47.5218 73.7284 43.0116 73.7284 37.3476C73.7284 31.6836 69.2182 27.2783 63.6591 27.2783ZM89.8813 53.5005C84.3222 53.5005 79.7071 58.0107 79.7071 63.6747C79.7071 65.6676 80.3364 67.6605 81.3853 69.2338L69.1133 81.2961C67.54 80.2472 65.652 79.6178 63.5542 79.6178C61.5613 79.6178 59.5684 80.2472 57.9951 81.2961L45.9329 69.129C46.9818 67.5556 47.6111 65.6676 47.6111 63.5698C47.6111 58.0107 43.1009 53.3956 37.4369 53.3956C31.7729 53.3956 27.2627 57.9058 27.2627 63.5698C27.2627 69.1289 31.7729 73.7441 37.4369 73.7441C39.4298 73.7441 41.4227 73.1147 42.996 72.0658L55.1631 84.233C54.1142 85.8063 53.4849 87.6943 53.4849 89.7921C53.4849 95.3512 57.9951 99.9663 63.6591 99.9663C69.2182 99.9663 73.8333 95.4561 73.8333 89.7921C73.8333 87.7992 73.204 85.8063 72.1551 84.233L84.3222 72.0658C85.8955 73.1147 87.7835 73.7441 89.8813 73.7441C95.4404 73.7441 100.056 69.2338 100.056 63.5698C99.9507 58.0107 95.4404 53.5005 89.8813 53.5005Z" fill="black"/>
<path d="M37.4369 79.7227C35.444 79.7227 33.4511 80.3521 31.8778 81.4009L19.7107 69.129C20.7595 67.5556 21.3889 65.6676 21.3889 63.5698C21.3889 61.5769 20.7595 59.5841 19.7107 58.0107L31.8778 45.8436C33.4511 46.8925 35.3391 47.5218 37.4369 47.5218C42.996 47.5218 47.6111 43.0116 47.6111 37.3476C47.6111 31.6836 43.1009 27.1734 37.4369 27.1734C31.7729 27.1734 27.2627 31.6836 27.2627 37.3476C27.2627 39.3405 27.892 41.3334 28.9409 42.9067L16.6689 55.0738C15.0955 54.0249 13.2075 53.3956 11.1098 53.3956C5.55066 53.3956 0.935547 57.9058 0.935547 63.5698C0.935547 69.1289 5.44577 73.7441 11.1098 73.7441C13.1027 73.7441 15.0955 73.1147 16.6689 72.0658L28.836 84.233C27.7871 85.8063 27.1578 87.6943 27.1578 89.7921C27.1578 95.3512 31.668 99.9663 37.332 99.9663C42.996 99.9663 47.5062 95.4561 47.5062 89.7921C47.5062 84.2329 42.996 79.7227 37.4369 79.7227ZM89.8813 27.2783C87.8884 27.2783 85.8955 27.9076 84.3222 28.9565L72.1551 16.6845C73.204 15.1112 73.8333 13.2232 73.8333 11.1254C73.8333 5.56628 69.3231 0.951172 63.6591 0.951172C58.1 0.951172 53.4849 5.46139 53.4849 11.1254C53.4849 16.7894 57.9951 21.2996 63.6591 21.2996C65.652 21.2996 67.6449 20.6703 69.2182 19.6214L81.3853 31.7885C80.3364 33.3618 79.7071 35.2498 79.7071 37.3476C79.7071 39.3405 80.3364 41.3334 81.3853 42.9067L69.1133 55.0738C67.54 54.0249 65.652 53.3956 63.5542 53.3956C57.9951 53.3956 53.38 57.9058 53.38 63.5698C53.38 69.1289 57.8902 73.7441 63.5542 73.7441C69.1133 73.7441 73.7284 69.2338 73.7284 63.5698C73.7284 61.5769 73.0991 59.5841 72.0502 58.0107L84.2173 45.8436C85.7907 46.8925 87.6787 47.5218 89.7764 47.5218C95.3355 47.5218 99.9507 43.0116 99.9507 37.3476C99.9507 31.6836 95.4404 27.2783 89.8813 27.2783Z" fill="black"/>
</g>
<defs>
<clipPath id="clip0_753_88">
<rect width="100" height="100" fill="white"/>
</clipPath>
</defs>
</svg>
