<svg width="100" height="100" viewBox="0 0 100 100" fill="none" xmlns="http://www.w3.org/2000/svg">
<g clip-path="url(#clip0_753_80)">
<path d="M63.6601 27.2783C61.6672 27.2783 59.6743 27.9076 58.101 28.9565L45.9339 16.6845C46.9827 15.1112 47.6121 13.2232 47.6121 11.1254C47.6121 5.56628 43.1019 0.951172 37.4379 0.951172C31.7739 0.951172 27.2636 5.46139 27.2636 11.1254C27.2636 13.1183 27.893 15.1112 28.9419 16.6845L16.6699 28.8516C15.0965 27.8027 13.2085 27.1734 11.1107 27.1734C5.55164 27.1734 0.936523 31.6836 0.936523 37.3476C0.936523 43.0116 5.44675 47.5218 11.1107 47.5218C16.7747 47.5218 21.285 43.0116 21.285 37.3476C21.285 35.3547 20.6556 33.3618 19.6067 31.7885L31.7739 19.6214C33.3472 20.6703 35.2352 21.2996 37.333 21.2996C39.3259 21.2996 41.3187 20.6703 42.8921 19.6214L55.0592 31.7885C54.0103 33.3618 53.381 35.2498 53.381 37.3476C53.381 42.9067 57.8912 47.5218 63.5552 47.5218C69.1143 47.5218 73.7294 43.0116 73.7294 37.3476C73.7294 31.6836 69.2192 27.2783 63.6601 27.2783ZM89.8823 53.5005C84.3232 53.5005 79.7081 58.0107 79.7081 63.6747C79.7081 65.6676 80.3374 67.6605 81.3863 69.2338L69.1143 81.2961C67.541 80.2472 65.653 79.6178 63.5552 79.6178C61.5623 79.6178 59.5694 80.2472 57.9961 81.2961L45.9339 69.129C46.9827 67.5556 47.6121 65.6676 47.6121 63.5698C47.6121 58.0107 43.1019 53.3956 37.4379 53.3956C31.7739 53.3956 27.2636 57.9058 27.2636 63.5698C27.2636 69.1289 31.7739 73.7441 37.4379 73.7441C39.4307 73.7441 41.4236 73.1147 42.997 72.0658L55.1641 84.233C54.1152 85.8063 53.4859 87.6943 53.4859 89.7921C53.4859 95.3512 57.9961 99.9663 63.6601 99.9663C69.2192 99.9663 73.8343 95.4561 73.8343 89.7921C73.8343 87.7992 73.205 85.8063 72.1561 84.233L84.3232 72.0658C85.8965 73.1147 87.7845 73.7441 89.8823 73.7441C95.4414 73.7441 100.057 69.2338 100.057 63.5698C99.9516 58.0107 95.4414 53.5005 89.8823 53.5005Z" fill="#FFD009"/>
<path d="M37.4379 79.7227C35.445 79.7227 33.4521 80.3521 31.8787 81.4009L19.7116 69.129C20.7605 67.5556 21.3899 65.6676 21.3899 63.5698C21.3899 61.5769 20.7605 59.5841 19.7116 58.0107L31.8787 45.8436C33.4521 46.8925 35.3401 47.5218 37.4379 47.5218C42.997 47.5218 47.6121 43.0116 47.6121 37.3476C47.6121 31.6836 43.1019 27.1734 37.4379 27.1734C31.7739 27.1734 27.2636 31.6836 27.2636 37.3476C27.2636 39.3405 27.893 41.3334 28.9419 42.9067L16.6699 55.0738C15.0965 54.0249 13.2085 53.3956 11.1107 53.3956C5.55164 53.3956 0.936523 57.9058 0.936523 63.5698C0.936523 69.1289 5.44675 73.7441 11.1107 73.7441C13.1036 73.7441 15.0965 73.1147 16.6699 72.0658L28.837 84.233C27.7881 85.8063 27.1587 87.6943 27.1587 89.7921C27.1587 95.3512 31.669 99.9663 37.333 99.9663C42.997 99.9663 47.5072 95.4561 47.5072 89.7921C47.5072 84.2329 42.997 79.7227 37.4379 79.7227ZM89.8823 27.2783C87.8894 27.2783 85.8965 27.9076 84.3232 28.9565L72.1561 16.6845C73.205 15.1112 73.8343 13.2232 73.8343 11.1254C73.8343 5.56628 69.3241 0.951172 63.6601 0.951172C58.101 0.951172 53.4859 5.46139 53.4859 11.1254C53.4859 16.7894 57.9961 21.2996 63.6601 21.2996C65.653 21.2996 67.6459 20.6703 69.2192 19.6214L81.3863 31.7885C80.3374 33.3618 79.7081 35.2498 79.7081 37.3476C79.7081 39.3405 80.3374 41.3334 81.3863 42.9067L69.1143 55.0738C67.541 54.0249 65.653 53.3956 63.5552 53.3956C57.9961 53.3956 53.381 57.9058 53.381 63.5698C53.381 69.1289 57.8912 73.7441 63.5552 73.7441C69.1143 73.7441 73.7294 69.2338 73.7294 63.5698C73.7294 61.5769 73.1001 59.5841 72.0512 58.0107L84.2183 45.8436C85.7916 46.8925 87.6796 47.5218 89.7774 47.5218C95.3365 47.5218 99.9516 43.0116 99.9516 37.3476C99.9516 31.6836 95.4414 27.2783 89.8823 27.2783Z" fill="#FFD009"/>
</g>
<defs>
<clipPath id="clip0_753_80">
<rect width="100" height="100" fill="white"/>
</clipPath>
</defs>
</svg>
