<svg width="568" height="60" viewBox="0 0 568 60" fill="none" xmlns="http://www.w3.org/2000/svg">
<g clip-path="url(#clip0_751_50)">
<path d="M6.3535 7.02229H1.86306V4.34713H16.672L28.8057 44.4267L40.3185 4.34713H55.5096V7.02229H50.9713L53.3599 48.4873H57.3726V51.1624H39.4586V48.4873H43.2803L41.1783 15.3822L30.9076 51.1624H20.7803L9.88853 15.4777L8.02548 48.4873H11.8949V51.1624H0V48.4873H4.01274L6.3535 7.02229ZM89.2834 17.7229H99.3153V43.758C99.3153 44.9682 99.6019 45.9236 100.175 46.6242C100.748 47.293 101.64 47.6274 102.85 47.6274C104.061 47.6274 105.446 46.9904 107.006 45.7166L108.201 47.293C104.634 50.5414 101.067 52.1656 97.5 52.1656C93.2643 52.1656 90.6529 50.1911 89.6656 46.242C87.3726 50.1911 83.965 52.1656 79.4427 52.1656C74.3153 52.1656 70.414 50.5095 67.7389 47.1974C65.0637 43.8853 63.7261 39.6497 63.7261 34.4904C63.7261 29.3312 65.1752 25.0796 68.0732 21.7357C70.9395 18.3917 74.9522 16.7197 80.1115 16.7197C84.0923 16.7197 87.1497 18.3121 89.2834 21.4968V17.7229ZM75.9554 24.3153C74.7134 26.7994 74.0924 30.1752 74.0924 34.4427C74.0924 38.742 74.7134 42.1338 75.9554 44.6178C77.2293 47.1338 79.1401 48.3917 81.6879 48.3917C84.2675 48.3917 86.2261 47.1338 87.5637 44.6178C88.9331 42.0701 89.6178 38.6783 89.6178 34.4427C89.6178 30.207 88.9331 26.8312 87.5637 24.3153C86.2261 21.7994 84.2675 20.5414 81.6879 20.5414C79.1401 20.5414 77.2293 21.7994 75.9554 24.3153ZM124.347 4.10828V21.4013C126.736 18.2803 130.43 16.7197 135.43 16.7197C138.296 16.7197 140.621 17.4363 142.404 18.8694C144.188 20.3025 145.08 22.1019 145.08 24.2675C145.08 26.4331 144.427 28.3599 143.121 30.0478C141.815 31.7357 140.048 33.121 137.818 34.2038L141.831 44.6178C142.277 45.7962 142.723 46.5924 143.169 47.0064C143.615 47.4204 144.252 47.6274 145.08 47.6274C146.545 47.6274 148.057 46.9904 149.618 45.7166L150.812 47.293C147.245 50.5414 143.551 52.1656 139.729 52.1656C135.939 52.1656 133.408 50.5732 132.134 47.3885L127.118 34.5382C129.57 33.965 131.624 32.7548 133.28 30.9076C134.904 29.0924 135.717 27.3408 135.717 25.6529C135.717 23.9331 135.287 22.707 134.427 21.9745C133.567 21.2102 132.5 20.828 131.226 20.828C129.092 20.828 127.404 21.6879 126.162 23.4076C124.952 25.1274 124.347 27.4681 124.347 30.4299V51.1624H114.315V3.24841C111.863 3.8535 109.984 4.9363 108.678 6.49681L106.863 4.44267C108.169 3.10509 109.809 2.03822 111.783 1.24204C113.758 0.414012 115.717 0 117.659 0C119.602 0 121.194 0.398089 122.436 1.19427C123.71 1.9586 124.347 2.92993 124.347 4.10828ZM168.487 35.7325C171.385 35.4777 173.615 34.379 175.175 32.4363C176.768 30.4936 177.564 28.535 177.564 26.5605C177.564 24.5541 177.134 23.0255 176.274 21.9745C175.382 20.8917 174.061 20.3503 172.309 20.3503C170.557 20.3503 168.869 21.5924 167.245 24.0764C165.653 26.5924 164.857 29.9363 164.857 34.1083C164.857 38.3121 165.621 41.6879 167.15 44.2357C168.647 46.7834 170.796 48.0573 173.599 48.0573C177.898 48.0573 181.545 46.3854 184.538 43.0414L186.401 44.2357C184.873 46.6242 182.866 48.551 180.382 50.0159C177.866 51.449 175.048 52.1656 171.927 52.1656C166.64 52.1656 162.404 50.4299 159.22 46.9586C156.067 43.4554 154.49 39.2197 154.49 34.2516C154.49 29.3153 156.178 25.1592 159.554 21.7834C162.898 18.4076 167.564 16.7197 173.551 16.7197C177.468 16.7197 180.541 17.6433 182.771 19.4904C185 21.3057 186.115 23.6147 186.115 26.4172C186.115 29.2516 184.889 31.8631 182.436 34.2516C179.952 36.6083 176.672 37.7866 172.596 37.7866C171.226 37.7866 169.889 37.6433 168.583 37.3567L168.487 35.7325ZM216.354 16.7197C217.691 16.7197 218.36 17.9936 218.36 20.5414V43.758C218.36 44.9682 218.646 45.9236 219.22 46.6242C219.793 47.293 220.685 47.6274 221.895 47.6274C223.105 47.6274 224.49 46.9904 226.051 45.7166L227.245 47.293C223.678 50.5414 220.111 52.1656 216.545 52.1656C211.067 52.1656 208.328 48.9013 208.328 42.3726V23.551C206.226 24.4108 203.678 25 200.685 25.3185C200.334 29.3949 199.156 33.4873 197.15 37.5955L194.427 36.7834C195.669 33.6306 196.338 29.8726 196.433 25.5096C194.745 25.5096 193.376 25.0159 192.325 24.0287C191.274 23.0414 190.748 21.8312 190.748 20.3981C190.748 18.9331 191.242 17.707 192.229 16.7197C193.248 15.7006 194.475 15.1911 195.908 15.1911C197.373 15.1911 198.599 15.7006 199.586 16.7197C200.541 17.7707 201.019 19.0924 201.019 20.6847H202.309C205.844 20.6847 209.586 19.6975 213.535 17.7229C214.841 17.0541 215.78 16.7197 216.354 16.7197ZM255.287 36.9268V42.5637C255.287 44.2834 256.131 45.7962 257.818 47.1019C259.506 48.4076 261.688 49.0605 264.363 49.0605C267.038 49.0605 269.156 48.4076 270.717 47.1019C272.277 45.7962 273.057 44.0764 273.057 41.9427C273.057 39.2357 271.433 36.9904 268.185 35.207L258.296 29.9045C252.596 26.8471 249.745 22.4522 249.745 16.7197C249.745 13.0892 251.083 9.95223 253.758 7.30892C256.433 4.6656 260.414 3.34395 265.701 3.34395C269.268 3.34395 272.659 4.06051 275.876 5.49363C279.092 6.92675 280.701 8.63057 280.701 10.6051C280.701 11.3376 280.446 12.1975 279.936 13.1847L276.736 19.3471L274.395 18.6306V12.9936C274.395 10.9873 273.519 9.41083 271.768 8.26433C270.016 7.08599 267.914 6.49681 265.462 6.49681C263.041 6.49681 261.178 7.21338 259.873 8.6465C258.599 10.0796 257.962 11.7038 257.962 13.5191C257.962 17.1815 259.602 19.8885 262.882 21.6401L271.385 26.0828C277.85 29.4904 281.083 33.949 281.083 39.4586C281.083 43.6624 279.506 46.8312 276.354 48.965C273.232 51.0987 269.268 52.1656 264.459 52.1656C260.828 52.1656 257.341 51.465 253.997 50.0637C250.653 48.6306 248.981 46.9268 248.981 44.9522C248.981 44.1879 249.236 43.328 249.745 42.3726L252.946 36.2102L255.287 36.9268ZM293.36 47.0541C290.08 43.6465 288.439 39.4427 288.439 34.4427C288.439 29.4745 290.08 25.2866 293.36 21.879C296.64 18.4395 300.908 16.7197 306.162 16.7197C311.417 16.7197 315.685 18.4395 318.965 21.879C322.245 25.2866 323.885 29.4745 323.885 34.4427C323.885 39.4427 322.245 43.6465 318.965 47.0541C315.685 50.4618 311.417 52.1656 306.162 52.1656C300.908 52.1656 296.64 50.4618 293.36 47.0541ZM300.669 23.742C299.427 26.5127 298.806 30.0796 298.806 34.4427C298.806 38.8376 299.427 42.4204 300.669 45.1911C301.943 47.9936 303.806 49.3949 306.258 49.3949C308.71 49.3949 310.557 47.9936 311.799 45.1911C313.041 42.4204 313.662 38.8376 313.662 34.4427C313.662 30.0796 313.041 26.5127 311.799 23.742C310.557 20.9395 308.71 19.5382 306.258 19.5382C303.806 19.5382 301.943 20.9395 300.669 23.742ZM336.354 21.4013H330.86V18.6783H336.354V11.9427C336.354 8.40764 337.357 5.5414 339.363 3.34395C341.369 1.11465 344.602 0 349.061 0C351.226 0 353.296 0.414012 355.271 1.24204C357.277 2.03822 358.917 3.10509 360.191 4.44267L358.424 6.49681C356.481 4.84076 354.331 4.01274 351.975 4.01274C348.248 4.01274 346.385 6.46497 346.385 11.3694V18.6783H353.933V21.4013H346.385V60H336.354V21.4013ZM364.682 21.4013H359.188V18.6783H364.682V9.02866H374.713V18.6783H382.261V21.4013H374.713V43.758C374.713 44.9682 375 45.9236 375.573 46.6242C376.178 47.293 377.07 47.6274 378.248 47.6274C379.459 47.6274 380.844 46.9904 382.404 45.7166L383.599 47.293C380.032 50.5414 376.465 52.1656 372.898 52.1656C367.42 52.1656 364.682 48.9013 364.682 42.3726V21.4013ZM425.494 20.828V43.0892C425.494 44.5223 425.939 45.6051 426.831 46.3376C427.723 47.0701 428.838 47.4363 430.175 47.4363C432.978 47.4363 435.398 45.9713 437.436 43.0414C439.506 40.1433 440.541 36.5764 440.541 32.3408C440.541 30.1752 440.111 27.914 439.252 25.5573C438.455 26.0987 437.436 26.3694 436.194 26.3694C434.952 26.3694 433.822 25.8599 432.803 24.8408C431.815 23.8535 431.322 22.6433 431.322 21.2102C431.322 19.7771 431.815 18.5669 432.803 17.5796C433.822 16.5605 435.08 16.051 436.576 16.051C438.105 16.051 439.411 16.6242 440.494 17.7707C441.576 18.9172 442.373 20.4299 442.882 22.3089C443.678 25.5573 444.076 28.742 444.076 31.8631C444.076 34.9841 443.694 37.707 442.93 40.0318C442.166 42.3248 441.194 44.2038 440.016 45.6688C438.806 47.1019 437.436 48.3439 435.908 49.3949C433.201 51.242 430.478 52.1656 427.739 52.1656C422.452 52.1656 418.806 50.4299 416.799 46.9586C415.334 48.6465 413.599 49.9363 411.592 50.828C409.586 51.7197 407.723 52.1656 406.003 52.1656C402.213 52.1656 399.22 51.2261 397.022 49.3471C394.825 47.4363 393.726 44.6656 393.726 41.035V19.9682C391.274 20.5732 389.395 21.6561 388.089 23.2166L386.274 21.1624C387.58 19.8248 389.22 18.758 391.194 17.9618C393.201 17.1338 395.175 16.7197 397.118 16.7197C399.029 16.7197 400.621 17.1178 401.895 17.914C403.137 18.6783 403.758 19.6497 403.758 20.828V43.0892C403.758 44.5223 404.204 45.6051 405.096 46.3376C405.987 47.0701 407.102 47.4363 408.439 47.4363C411.465 47.4363 413.822 45.9395 415.51 42.9459C415.478 42.5637 415.462 41.9268 415.462 41.035V19.9682C413.01 20.5732 411.131 21.6561 409.825 23.2166L408.01 21.1624C409.315 19.8248 410.955 18.758 412.93 17.9618C414.936 17.1338 416.895 16.7197 418.806 16.7197C420.748 16.7197 422.357 17.1178 423.631 17.914C424.873 18.6783 425.494 19.6497 425.494 20.828ZM477.994 17.7229H488.025V43.758C488.025 44.9682 488.312 45.9236 488.885 46.6242C489.459 47.293 490.35 47.6274 491.561 47.6274C492.771 47.6274 494.156 46.9904 495.717 45.7166L496.911 47.293C493.344 50.5414 489.777 52.1656 486.21 52.1656C481.975 52.1656 479.363 50.1911 478.376 46.242C476.051 50.1911 472.643 52.1656 468.153 52.1656C463.025 52.1656 459.124 50.5095 456.449 47.1974C453.774 43.8853 452.436 39.6497 452.436 34.4904C452.436 29.3312 453.869 25.0796 456.736 21.7357C459.634 18.3917 463.662 16.7197 468.822 16.7197C472.803 16.7197 475.86 18.3121 477.994 21.4968V17.7229ZM464.666 24.3153C463.424 26.7994 462.803 30.1752 462.803 34.4427C462.803 38.742 463.424 42.1338 464.666 44.6178C465.908 47.1338 467.818 48.3917 470.398 48.3917C472.946 48.3917 474.904 47.1338 476.274 44.6178C477.643 42.0701 478.328 38.6783 478.328 34.4427C478.328 30.207 477.643 26.8312 476.274 24.3153C474.904 21.7994 472.946 20.5414 470.398 20.5414C467.818 20.5414 465.908 21.7994 464.666 24.3153ZM521.847 16.7197C523.185 16.7197 523.854 17.9936 523.854 20.5414V43.758C523.854 44.9682 524.14 45.9236 524.713 46.6242C525.318 47.293 526.21 47.6274 527.389 47.6274C528.599 47.6274 529.984 46.9904 531.545 45.7166L532.739 47.293C529.172 50.5414 525.605 52.1656 522.038 52.1656C516.561 52.1656 513.822 48.9013 513.822 42.3726V23.551C511.72 24.4108 509.188 25 506.226 25.3185C505.844 29.3949 504.65 33.4873 502.643 37.5955L499.92 36.7834C501.162 33.6306 501.831 29.8726 501.927 25.5096C500.239 25.5096 498.869 25.0159 497.818 24.0287C496.768 23.0414 496.242 21.8312 496.242 20.3981C496.242 18.9331 496.752 17.707 497.771 16.7197C498.758 15.7006 499.984 15.1911 501.449 15.1911C502.882 15.1911 504.092 15.7006 505.08 16.7197C506.067 17.7707 506.561 19.0924 506.561 20.6847H507.803C511.338 20.6847 515.08 19.6975 519.029 17.7229C520.334 17.0541 521.274 16.7197 521.847 16.7197ZM549.745 35.7325C552.643 35.4777 554.889 34.379 556.481 32.4363C558.041 30.4936 558.822 28.535 558.822 26.5605C558.822 24.5541 558.392 23.0255 557.532 21.9745C556.672 20.8917 555.366 20.3503 553.615 20.3503C551.831 20.3503 550.143 21.5924 548.551 24.0764C546.927 26.5924 546.115 29.9363 546.115 34.1083C546.115 38.3121 546.879 41.6879 548.408 44.2357C549.936 46.7834 552.102 48.0573 554.904 48.0573C559.172 48.0573 562.803 46.3854 565.796 43.0414L567.659 44.2357C566.162 46.6242 564.156 48.551 561.64 50.0159C559.156 51.449 556.353 52.1656 553.232 52.1656C547.914 52.1656 543.678 50.4299 540.525 46.9586C537.341 43.4554 535.748 39.2197 535.748 34.2516C535.748 29.3153 537.436 25.1592 540.812 21.7834C544.188 18.4076 548.853 16.7197 554.809 16.7197C558.758 16.7197 561.847 17.6433 564.076 19.4904C566.306 21.3057 567.42 23.6147 567.42 26.4172C567.42 29.2516 566.178 31.8631 563.694 34.2516C561.21 36.6083 557.946 37.7866 553.901 37.7866C552.5 37.7866 551.162 37.6433 549.889 37.3567L549.745 35.7325Z" fill="#FFD009"/>
</g>
<defs>
<clipPath id="clip0_751_50">
<rect width="567.659" height="60" fill="white"/>
</clipPath>
</defs>
</svg>
