<svg width="664" height="60" viewBox="0 0 664 60" fill="none" xmlns="http://www.w3.org/2000/svg">
<g clip-path="url(#clip0_772_179)">
<path d="M10.9626 59.2513H0L4.2246 5.72193H22.5134L30.4813 33.5294L32.5668 43.4759H33.262L35.5615 33.5294L43.4759 5.72193H62.8877L67.1123 59.2513H53.2086L51.4438 23.2086L51.3904 13.5829H50.4813L48.2353 22.9412L37.9679 58.2353H26.2032L15.8824 22.9947L13.5294 13.5829H12.6738L12.6203 23.1551L10.9626 59.2513ZM95.5615 60C92.2103 60 89.287 59.4831 86.7914 58.4492C84.2959 57.4153 82.2282 56.025 80.5882 54.2781C78.9127 52.5312 77.6649 50.5169 76.8449 48.2353C76.0606 45.918 75.6684 43.4938 75.6684 40.9626C75.6684 38.0036 76.2032 35.2406 77.2727 32.6738C78.3422 30.0713 79.8574 27.8253 81.8182 25.9358C83.779 24.0463 86.1497 22.549 88.9305 21.4439C91.7112 20.3387 94.795 19.7861 98.1818 19.7861C101.497 19.7861 104.403 20.303 106.898 21.3369C109.394 22.3708 111.479 23.7433 113.155 25.4545C114.795 27.2014 116.043 29.2335 116.898 31.5508C117.754 33.8681 118.182 36.328 118.182 38.9305C118.182 41.9251 117.629 44.7237 116.524 47.3262C115.419 49.8931 113.868 52.1212 111.872 54.0107C109.911 55.9002 107.54 57.3619 104.759 58.3957C101.979 59.4652 98.9126 60 95.5615 60ZM97.1123 52.139C98.2888 52.139 99.3583 51.8895 100.321 51.3904C101.283 50.9269 102.103 50.1961 102.781 49.1979C103.494 48.1996 104.064 46.9697 104.492 45.508C104.884 44.0463 105.08 42.3529 105.08 40.4278C105.08 38.574 104.884 36.8806 104.492 35.3476C104.135 33.779 103.583 32.4242 102.834 31.2834C102.121 30.1426 101.248 29.2513 100.214 28.6096C99.18 27.9679 98.0036 27.6471 96.6845 27.6471C95.508 27.6471 94.4207 27.9144 93.4225 28.4492C92.4599 28.984 91.6399 29.7504 90.9626 30.7487C90.2496 31.7469 89.697 32.9768 89.3048 34.4385C88.9126 35.9002 88.7166 37.5758 88.7166 39.4652C88.7166 41.3904 88.9126 43.1373 89.3048 44.7059C89.697 46.2389 90.2674 47.5758 91.016 48.7166C91.7291 49.8218 92.6025 50.6595 93.6364 51.2299C94.6702 51.836 95.8289 52.139 97.1123 52.139ZM126.845 59.2513V20.5348H137.54L139.091 31.8717C139.483 31.1943 139.875 30.4813 140.267 29.7326C140.66 29.0196 141.034 28.3422 141.39 27.7005C141.747 27.0945 142.068 26.5597 142.353 26.0963C142.638 25.6328 142.834 25.2941 142.941 25.0802C143.405 24.2959 143.922 23.5829 144.492 22.9412C145.098 22.2995 145.758 21.7469 146.471 21.2834C147.148 20.82 147.932 20.4635 148.824 20.2139C149.715 19.9287 150.695 19.7861 151.765 19.7861C152.478 19.7861 153.244 19.8752 154.064 20.0535C154.92 20.2317 155.704 20.5348 156.417 20.9626L155.027 32.3529C154.777 32.3173 154.474 32.2816 154.118 32.246C153.761 32.2103 153.387 32.1747 152.995 32.139C152.567 32.139 152.175 32.1212 151.818 32.0856C151.426 32.0856 151.087 32.0856 150.802 32.0856C148.342 32.0856 146.15 32.5668 144.225 33.5294C142.264 34.4563 140.695 35.6685 139.519 37.1658V59.2513H126.845ZM167.861 46.5775V28.3957H160.107L160.909 22.9947C162.193 22.5312 163.315 22.1034 164.278 21.7112C165.205 21.2834 166.025 20.8378 166.738 20.3743C167.487 19.8752 168.128 19.3583 168.663 18.8235C169.198 18.2531 169.715 17.5758 170.214 16.7914C170.713 16.0428 171.23 15.1872 171.765 14.2246C172.264 13.2264 172.852 12.0677 173.529 10.7487H179.786V20.5348H193.476L191.711 28.3957H180.535V44.9198C180.535 47.344 181.176 49.0553 182.46 50.0535C183.708 51.016 185.49 51.4973 187.807 51.4973C188.734 51.4973 189.679 51.4082 190.642 51.2299C191.604 51.0873 192.549 50.8378 193.476 50.4813V55.9358C191.551 57.3262 189.465 58.3423 187.219 58.984C184.938 59.6613 182.656 60 180.374 60C178.128 60 176.221 59.697 174.652 59.0909C173.048 58.4492 171.747 57.5401 170.749 56.3636C169.75 55.2228 169.02 53.8146 168.556 52.139C168.093 50.4991 167.861 48.6453 167.861 46.5775ZM218.93 60C215.579 60 212.656 59.4831 210.16 58.4492C207.665 57.4153 205.579 56.025 203.904 54.2781C202.264 52.5312 201.034 50.5169 200.214 48.2353C199.394 45.918 198.984 43.4938 198.984 40.9626C198.984 38.0036 199.519 35.2406 200.588 32.6738C201.658 30.0713 203.173 27.8253 205.134 25.9358C207.094 24.0463 209.465 22.549 212.246 21.4439C215.027 20.3387 218.128 19.7861 221.551 19.7861C224.866 19.7861 227.772 20.303 230.267 21.3369C232.763 22.3708 234.831 23.7433 236.471 25.4545C238.146 27.2014 239.394 29.2335 240.214 31.5508C241.07 33.8681 241.497 36.328 241.497 38.9305C241.497 41.9251 240.945 44.7237 239.84 47.3262C238.734 49.8931 237.201 52.1212 235.241 54.0107C233.244 55.9002 230.856 57.3619 228.075 58.3957C225.33 59.4652 222.282 60 218.93 60ZM220.481 52.139C221.622 52.139 222.674 51.8895 223.636 51.3904C224.599 50.9269 225.437 50.1961 226.15 49.1979C226.863 48.1996 227.415 46.9697 227.807 45.508C228.2 44.0463 228.396 42.3529 228.396 40.4278C228.396 38.574 228.217 36.8806 227.861 35.3476C227.469 33.779 226.916 32.4242 226.203 31.2834C225.49 30.1426 224.617 29.2513 223.583 28.6096C222.549 27.9679 221.355 27.6471 220 27.6471C218.824 27.6471 217.754 27.9144 216.791 28.4492C215.829 28.984 214.991 29.7504 214.278 30.7487C213.601 31.7469 213.066 32.9768 212.674 34.4385C212.282 35.9002 212.086 37.5758 212.086 39.4652C212.086 41.3904 212.282 43.1373 212.674 44.7059C213.066 46.2389 213.619 47.5758 214.332 48.7166C215.08 49.8218 215.971 50.6595 217.005 51.2299C218.039 51.836 219.198 52.139 220.481 52.139ZM250.16 59.2513V20.5348H260.856L262.406 26.8984C263.226 26.1497 264.153 25.3654 265.187 24.5455C266.221 23.7255 267.344 22.959 268.556 22.246C269.768 21.533 271.052 20.9447 272.406 20.4813C273.797 20.0178 275.223 19.7861 276.684 19.7861C278.503 19.7861 280.143 20.107 281.604 20.7487C283.102 21.3904 284.367 22.2995 285.401 23.4759C286.471 24.6524 287.291 26.0606 287.861 27.7005C288.467 29.3405 288.77 31.1586 288.77 33.1551V59.2513H276.043V35.0267C276.043 33.9216 275.882 32.959 275.561 32.139C275.276 31.2834 274.866 30.5882 274.332 30.0535C273.832 29.4831 273.226 29.0553 272.513 28.7701C271.8 28.4849 271.034 28.3422 270.214 28.3422C268.895 28.3422 267.629 28.6809 266.417 29.3583C265.205 30 264.011 30.82 262.834 31.8182V59.2513H250.16ZM329.358 52.0321C330.499 52.0321 331.604 51.9073 332.674 51.6578C333.708 51.4082 334.635 51.016 335.455 50.4813C336.239 49.9465 336.881 49.2513 337.38 48.3957C337.879 47.5758 338.128 46.5954 338.128 45.4545C338.128 44.0998 337.79 42.9412 337.112 41.9786C336.399 41.016 335.49 40.1783 334.385 39.4652C333.244 38.7522 331.961 38.0927 330.535 37.4866C329.073 36.9162 327.594 36.3102 326.096 35.6684C324.599 34.9911 323.137 34.2602 321.711 33.4759C320.285 32.6916 319.002 31.7469 317.861 30.6417C316.756 29.5009 315.847 28.164 315.134 26.631C314.456 25.0624 314.118 23.2086 314.118 21.0695C314.118 18.6096 314.599 16.3815 315.561 14.385C316.524 12.4242 317.879 10.7487 319.626 9.35829C321.373 7.96791 323.476 6.8984 325.936 6.14973C328.431 5.36542 331.194 4.97326 334.225 4.97326C335.08 4.97326 336.061 5.00891 337.166 5.08021C338.271 5.15152 339.447 5.25847 340.695 5.40107C341.979 5.54367 343.28 5.73975 344.599 5.98931C345.954 6.23886 347.273 6.54189 348.556 6.8984L346.684 15.508L346.043 15.7754C344.902 15.2763 343.761 14.8485 342.62 14.492C341.479 14.1355 340.392 13.8324 339.358 13.5829C338.289 13.369 337.291 13.2086 336.364 13.1016C335.437 12.9947 334.617 12.9412 333.904 12.9412C331.551 12.9412 329.679 13.4403 328.289 14.4385C326.898 15.4367 326.203 16.8984 326.203 18.8235C326.203 20.2139 326.542 21.3726 327.219 22.2995C327.897 23.2264 328.806 24.0642 329.947 24.8128C331.087 25.5258 332.371 26.1854 333.797 26.7914C335.223 27.3975 336.684 28.0214 338.182 28.6631C339.679 29.3405 341.159 30.0713 342.62 30.8556C344.046 31.6043 345.33 32.549 346.471 33.6898C347.611 34.795 348.52 36.1141 349.198 37.6471C349.875 39.18 350.214 40.9982 350.214 43.1016C350.214 45.5971 349.733 47.8788 348.77 49.9465C347.772 52.0143 346.364 53.7968 344.545 55.2941C342.727 56.7914 340.535 57.9501 337.968 58.7701C335.401 59.59 332.513 60 329.305 60C328.093 60 326.809 59.9287 325.455 59.7861C324.064 59.6791 322.62 59.4831 321.123 59.1979C319.661 58.9483 318.164 58.5918 316.631 58.1283C315.134 57.7005 313.672 57.1658 312.246 56.5241L314.171 47.9144L314.92 47.5401C316.31 48.1818 317.629 48.7879 318.877 49.3583C320.16 49.9287 321.39 50.41 322.567 50.8021C323.743 51.1943 324.884 51.4973 325.989 51.7112C327.13 51.9251 328.253 52.0321 329.358 52.0321ZM376.631 60C373.28 60 370.356 59.4831 367.861 58.4492C365.365 57.4153 363.28 56.025 361.604 54.2781C359.964 52.5312 358.734 50.5169 357.914 48.2353C357.094 45.918 356.684 43.4938 356.684 40.9626C356.684 38.0036 357.219 35.2406 358.289 32.6738C359.358 30.0713 360.873 27.8253 362.834 25.9358C364.795 24.0463 367.166 22.549 369.947 21.4439C372.727 20.3387 375.829 19.7861 379.251 19.7861C382.567 19.7861 385.472 20.303 387.968 21.3369C390.463 22.3708 392.531 23.7433 394.171 25.4545C395.847 27.2014 397.094 29.2335 397.914 31.5508C398.77 33.8681 399.198 36.328 399.198 38.9305C399.198 41.9251 398.645 44.7237 397.54 47.3262C396.435 49.8931 394.902 52.1212 392.941 54.0107C390.945 55.9002 388.556 57.3619 385.775 58.3957C383.03 59.4652 379.982 60 376.631 60ZM378.182 52.139C379.323 52.139 380.374 51.8895 381.337 51.3904C382.299 50.9269 383.137 50.1961 383.85 49.1979C384.563 48.1996 385.116 46.9697 385.508 45.508C385.9 44.0463 386.096 42.3529 386.096 40.4278C386.096 38.574 385.918 36.8806 385.561 35.3476C385.169 33.779 384.617 32.4242 383.904 31.2834C383.191 30.1426 382.317 29.2513 381.283 28.6096C380.25 27.9679 379.055 27.6471 377.701 27.6471C376.524 27.6471 375.455 27.9144 374.492 28.4492C373.529 28.984 372.692 29.7504 371.979 30.7487C371.301 31.7469 370.766 32.9768 370.374 34.4385C369.982 35.9002 369.786 37.5758 369.786 39.4652C369.786 41.3904 369.982 43.1373 370.374 44.7059C370.766 46.2389 371.319 47.5758 372.032 48.7166C372.781 49.8218 373.672 50.6595 374.706 51.2299C375.74 51.836 376.898 52.139 378.182 52.139ZM410.963 59.2513V28.3957H403.209L404.011 22.8877L411.016 20.5348V19.3048C411.016 16.5954 411.408 14.082 412.192 11.7647C413.012 9.41177 414.207 7.36185 415.775 5.61497C417.344 3.86809 419.287 2.49554 421.604 1.49733C423.886 0.499109 426.524 0 429.519 0C430.766 0 432.05 0.0891263 433.369 0.267379C434.724 0.445633 436.025 0.713013 437.273 1.06952L435.508 8.71658L434.866 9.09091C434.225 8.69875 433.494 8.39572 432.674 8.18182C431.889 7.96792 431.069 7.86096 430.214 7.86096C429.073 7.86096 428.075 8.09269 427.219 8.55615C426.364 9.05526 425.686 9.75045 425.187 10.6417C424.652 11.5686 424.26 12.656 424.011 13.9037C423.761 15.1872 423.636 16.631 423.636 18.2353V20.5348H435.775L434.011 28.3957H423.636V59.2513H410.963ZM446.738 46.5775V28.3957H438.984L439.786 22.9947C441.069 22.5312 442.192 22.1034 443.155 21.7112C444.082 21.2834 444.92 20.8378 445.668 20.3743C446.381 19.8752 447.005 19.3583 447.54 18.8235C448.075 18.2531 448.592 17.5758 449.091 16.7914C449.59 16.0428 450.107 15.1872 450.642 14.2246C451.141 13.2264 451.729 12.0677 452.406 10.7487H458.663V20.5348H472.406L470.588 28.3957H459.465V44.9198C459.465 47.344 460.089 49.0553 461.337 50.0535C462.585 51.016 464.385 51.4973 466.738 51.4973C467.665 51.4973 468.61 51.4082 469.572 51.2299C470.535 51.0873 471.462 50.8378 472.353 50.4813V55.9358C470.463 57.3262 468.378 58.3423 466.096 58.984C463.815 59.6613 461.533 60 459.251 60C457.005 60 455.098 59.697 453.529 59.0909C451.925 58.4492 450.624 57.5401 449.626 56.3636C448.627 55.2228 447.897 53.8146 447.433 52.139C446.97 50.4991 446.738 48.6453 446.738 46.5775ZM477.059 20.5348H490.695L495.08 42.8342L496.31 50.2674H497.005L498.342 42.8877L503.476 21.7112H517.219L522.299 42.8342L523.69 50.2674H524.438L525.561 42.8877L530.107 20.5348H540.642L530.053 59.2513H515.722L510.963 40.1604L509.519 31.4973H508.77L507.166 40.2139L502.086 59.2513H487.647L477.059 20.5348ZM568.128 53.6898C567.38 54.2959 566.542 54.9554 565.615 55.6685C564.688 56.4171 563.69 57.1123 562.62 57.754C561.515 58.3957 560.339 58.9305 559.091 59.3583C557.843 59.7861 556.524 60 555.134 60C553.458 60 551.996 59.6792 550.749 59.0374C549.465 58.3957 548.396 57.5579 547.54 56.5241C546.72 55.4545 546.096 54.2602 545.668 52.9412C545.241 51.6221 545.027 50.303 545.027 48.984C545.027 47.2014 545.437 45.508 546.257 43.9038C547.077 42.3351 548.342 40.9626 550.053 39.7861C551.8 38.6096 554.011 37.6649 556.684 36.9519C559.358 36.2745 562.549 35.9358 566.257 35.9358H567.7V33.6898C567.7 31.7291 567.094 30.2317 565.882 29.1979C564.635 28.164 562.995 27.6471 560.963 27.6471C560.071 27.6471 559.127 27.754 558.128 27.9679C557.13 28.1818 556.132 28.4849 555.134 28.877C554.135 29.2692 553.173 29.7148 552.246 30.2139C551.283 30.713 550.392 31.2656 549.572 31.8717L548.877 31.4973L546.738 23.7968C549.875 22.3351 552.852 21.3012 555.668 20.6952C558.449 20.0891 561.194 19.7861 563.904 19.7861C566.221 19.7861 568.396 20 570.428 20.4278C572.424 20.8913 574.153 21.6043 575.615 22.5668C577.112 23.5651 578.289 24.8663 579.144 26.4706C580 28.0392 580.428 29.9822 580.428 32.2995V47.861C580.428 48.2888 580.463 48.7166 580.535 49.1444C580.606 49.5722 580.731 49.9644 580.909 50.3209C581.123 50.6774 581.39 50.9626 581.711 51.1765C582.068 51.3904 582.513 51.4973 583.048 51.4973C583.369 51.4973 583.708 51.4617 584.064 51.3904C584.385 51.3547 584.741 51.2478 585.134 51.0695V56.5241C583.565 57.5936 581.996 58.4492 580.428 59.0909C578.824 59.697 577.273 60 575.775 60C573.85 60 572.282 59.4474 571.069 58.3422C569.822 57.2727 568.841 55.7219 568.128 53.6898ZM567.7 48.877V40.4278H566.31C564.385 40.4278 562.799 40.5704 561.551 40.8556C560.267 41.1052 559.251 41.4973 558.503 42.0321C557.79 42.5312 557.273 43.1373 556.952 43.8503C556.667 44.5633 556.524 45.3832 556.524 46.3102C556.524 47.2371 556.667 48.0214 556.952 48.6631C557.201 49.3048 557.558 49.8396 558.021 50.2674C558.485 50.6952 559.002 50.9982 559.572 51.1765C560.178 51.3904 560.802 51.4973 561.444 51.4973C562.371 51.4973 563.351 51.3013 564.385 50.9091C565.419 50.5526 566.524 49.8752 567.7 48.877ZM591.979 59.2513V20.5348H602.674L604.225 31.8717C604.617 31.1943 605.009 30.4813 605.401 29.7326C605.793 29.0196 606.168 28.3422 606.524 27.7005C606.881 27.0945 607.201 26.5597 607.487 26.0963C607.772 25.6328 607.968 25.2941 608.075 25.0802C608.538 24.2959 609.055 23.5829 609.626 22.9412C610.232 22.2995 610.891 21.7469 611.604 21.2834C612.317 20.82 613.102 20.4635 613.957 20.2139C614.848 19.9287 615.829 19.7861 616.898 19.7861C617.611 19.7861 618.378 19.8752 619.198 20.0535C620.053 20.2317 620.838 20.5348 621.551 20.9626L620.16 32.3529C619.946 32.3173 619.643 32.2816 619.251 32.246C618.895 32.2103 618.52 32.1747 618.128 32.139C617.7 32.139 617.308 32.1212 616.952 32.0856C616.56 32.0856 616.221 32.0856 615.936 32.0856C613.476 32.0856 611.283 32.5668 609.358 33.5294C607.397 34.4563 605.829 35.6685 604.652 37.1658V59.2513H591.979ZM661.658 49.7861V55.2406C660.339 56.1676 659.002 56.934 657.647 57.5401C656.257 58.1462 654.884 58.6453 653.529 59.0374C652.139 59.3939 650.802 59.6435 649.519 59.7861C648.2 59.9287 646.916 60 645.668 60C642.567 60 639.768 59.59 637.273 58.7701C634.741 57.9144 632.602 56.7023 630.856 55.1337C629.109 53.5294 627.754 51.5686 626.791 49.2513C625.864 46.9341 625.401 44.2959 625.401 41.3369C625.401 37.9501 625.989 34.9376 627.166 32.2995C628.342 29.6257 629.911 27.3619 631.872 25.508C633.832 23.6898 636.096 22.2816 638.663 21.2834C641.266 20.2852 643.975 19.7861 646.791 19.7861C649.216 19.7861 651.462 20.1604 653.529 20.9091C655.597 21.6934 657.38 22.8164 658.877 24.2781C660.374 25.7398 661.533 27.5579 662.353 29.7326C663.173 31.943 663.583 34.4742 663.583 37.3262C663.583 38.2531 663.547 39.0909 663.476 39.8396C663.405 40.6239 663.298 41.2834 663.155 41.8182H638.449C638.449 43.5294 638.752 44.9911 639.358 46.2032C639.964 47.4153 640.82 48.4136 641.925 49.1979C643.03 49.9822 644.367 50.5704 645.936 50.9626C647.469 51.3191 649.198 51.4973 651.123 51.4973C651.8 51.4973 652.567 51.4617 653.422 51.3904C654.278 51.3547 655.151 51.2656 656.043 51.123C656.97 51.016 657.914 50.8556 658.877 50.6417C659.804 50.4278 660.731 50.1426 661.658 49.7861ZM638.449 37.3262H652.086C652.086 35.6506 651.925 34.2068 651.604 32.9947C651.283 31.7825 650.82 30.7843 650.214 30C649.643 29.18 648.948 28.5918 648.128 28.2353C647.344 27.8431 646.471 27.6471 645.508 27.6471C644.474 27.6471 643.512 27.861 642.62 28.2888C641.765 28.7522 641.034 29.3939 640.428 30.2139C639.786 31.0339 639.305 32.0499 638.984 33.262C638.627 34.4385 638.449 35.7932 638.449 37.3262Z" fill="black"/>
</g>
<defs>
<clipPath id="clip0_772_179">
<rect width="663.583" height="60" fill="white"/>
</clipPath>
</defs>
</svg>
