<svg width="774" height="90" viewBox="0 0 774 90" fill="none" xmlns="http://www.w3.org/2000/svg">
<g clip-path="url(#clip0_772_164)">
<path d="M120.963 74.2513H110L114.225 20.7219H132.513L140.481 48.5294L142.567 58.4759H143.262L145.561 48.5294L153.476 20.7219H172.888L177.112 74.2513H163.209L161.444 38.2086L161.39 28.5829H160.481L158.235 37.9412L147.968 73.2353H136.203L125.882 37.9947L123.529 28.5829H122.674L122.62 38.1551L120.963 74.2513ZM205.561 75C202.21 75 199.287 74.4831 196.791 73.4492C194.296 72.4153 192.228 71.025 190.588 69.2781C188.913 67.5312 187.665 65.5169 186.845 63.2353C186.061 60.918 185.668 58.4938 185.668 55.9626C185.668 53.0036 186.203 50.2406 187.273 47.6738C188.342 45.0713 189.857 42.8253 191.818 40.9358C193.779 39.0463 196.15 37.549 198.93 36.4439C201.711 35.3387 204.795 34.7861 208.182 34.7861C211.497 34.7861 214.403 35.303 216.898 36.3369C219.394 37.3708 221.479 38.7433 223.155 40.4545C224.795 42.2014 226.043 44.2335 226.898 46.5508C227.754 48.8681 228.182 51.328 228.182 53.9305C228.182 56.9251 227.629 59.7237 226.524 62.3262C225.419 64.8931 223.868 67.1212 221.872 69.0107C219.911 70.9002 217.54 72.3619 214.759 73.3957C211.979 74.4652 208.913 75 205.561 75ZM207.112 67.139C208.289 67.139 209.358 66.8895 210.321 66.3904C211.283 65.9269 212.103 65.1961 212.781 64.1979C213.494 63.1996 214.064 61.9697 214.492 60.508C214.884 59.0463 215.08 57.3529 215.08 55.4278C215.08 53.574 214.884 51.8806 214.492 50.3476C214.135 48.779 213.583 47.4242 212.834 46.2834C212.121 45.1426 211.248 44.2513 210.214 43.6096C209.18 42.9679 208.004 42.6471 206.684 42.6471C205.508 42.6471 204.421 42.9144 203.422 43.4492C202.46 43.984 201.64 44.7504 200.963 45.7487C200.25 46.7469 199.697 47.9768 199.305 49.4385C198.913 50.9002 198.717 52.5758 198.717 54.4652C198.717 56.3904 198.913 58.1373 199.305 59.7059C199.697 61.2389 200.267 62.5758 201.016 63.7166C201.729 64.8218 202.602 65.6595 203.636 66.2299C204.67 66.836 205.829 67.139 207.112 67.139ZM236.845 74.2513V35.5348H247.54L249.091 46.8717C249.483 46.1943 249.875 45.4813 250.267 44.7326C250.66 44.0196 251.034 43.3422 251.39 42.7005C251.747 42.0945 252.068 41.5597 252.353 41.0963C252.638 40.6328 252.834 40.2941 252.941 40.0802C253.405 39.2959 253.922 38.5829 254.492 37.9412C255.098 37.2995 255.758 36.7469 256.471 36.2834C257.148 35.82 257.932 35.4635 258.824 35.2139C259.715 34.9287 260.695 34.7861 261.765 34.7861C262.478 34.7861 263.244 34.8752 264.064 35.0535C264.92 35.2317 265.704 35.5348 266.417 35.9626L265.027 47.3529C264.777 47.3173 264.474 47.2816 264.118 47.246C263.761 47.2103 263.387 47.1747 262.995 47.139C262.567 47.139 262.175 47.1212 261.818 47.0856C261.426 47.0856 261.087 47.0856 260.802 47.0856C258.342 47.0856 256.15 47.5668 254.225 48.5294C252.264 49.4563 250.695 50.6685 249.519 52.1658V74.2513H236.845ZM277.861 61.5775V43.3957H270.107L270.909 37.9947C272.193 37.5312 273.315 37.1034 274.278 36.7112C275.205 36.2834 276.025 35.8378 276.738 35.3743C277.487 34.8752 278.128 34.3583 278.663 33.8235C279.198 33.2531 279.715 32.5758 280.214 31.7914C280.713 31.0428 281.23 30.1872 281.765 29.2246C282.264 28.2264 282.852 27.0677 283.529 25.7487H289.786V35.5348H303.476L301.711 43.3957H290.535V59.9198C290.535 62.344 291.176 64.0553 292.46 65.0535C293.708 66.016 295.49 66.4973 297.807 66.4973C298.734 66.4973 299.679 66.4082 300.642 66.2299C301.604 66.0873 302.549 65.8378 303.476 65.4813V70.9358C301.551 72.3262 299.465 73.3423 297.219 73.984C294.938 74.6613 292.656 75 290.374 75C288.128 75 286.221 74.697 284.652 74.0909C283.048 73.4492 281.747 72.5401 280.749 71.3636C279.75 70.2228 279.02 68.8146 278.556 67.139C278.093 65.4991 277.861 63.6453 277.861 61.5775ZM328.93 75C325.579 75 322.656 74.4831 320.16 73.4492C317.665 72.4153 315.579 71.025 313.904 69.2781C312.264 67.5312 311.034 65.5169 310.214 63.2353C309.394 60.918 308.984 58.4938 308.984 55.9626C308.984 53.0036 309.519 50.2406 310.588 47.6738C311.658 45.0713 313.173 42.8253 315.134 40.9358C317.094 39.0463 319.465 37.549 322.246 36.4439C325.027 35.3387 328.128 34.7861 331.551 34.7861C334.866 34.7861 337.772 35.303 340.267 36.3369C342.763 37.3708 344.831 38.7433 346.471 40.4545C348.146 42.2014 349.394 44.2335 350.214 46.5508C351.07 48.8681 351.497 51.328 351.497 53.9305C351.497 56.9251 350.945 59.7237 349.84 62.3262C348.734 64.8931 347.201 67.1212 345.241 69.0107C343.244 70.9002 340.856 72.3619 338.075 73.3957C335.33 74.4652 332.282 75 328.93 75ZM330.481 67.139C331.622 67.139 332.674 66.8895 333.636 66.3904C334.599 65.9269 335.437 65.1961 336.15 64.1979C336.863 63.1996 337.415 61.9697 337.807 60.508C338.2 59.0463 338.396 57.3529 338.396 55.4278C338.396 53.574 338.217 51.8806 337.861 50.3476C337.469 48.779 336.916 47.4242 336.203 46.2834C335.49 45.1426 334.617 44.2513 333.583 43.6096C332.549 42.9679 331.355 42.6471 330 42.6471C328.824 42.6471 327.754 42.9144 326.791 43.4492C325.829 43.984 324.991 44.7504 324.278 45.7487C323.601 46.7469 323.066 47.9768 322.674 49.4385C322.282 50.9002 322.086 52.5758 322.086 54.4652C322.086 56.3904 322.282 58.1373 322.674 59.7059C323.066 61.2389 323.619 62.5758 324.332 63.7166C325.08 64.8218 325.971 65.6595 327.005 66.2299C328.039 66.836 329.198 67.139 330.481 67.139ZM360.16 74.2513V35.5348H370.856L372.406 41.8984C373.226 41.1497 374.153 40.3654 375.187 39.5455C376.221 38.7255 377.344 37.959 378.556 37.246C379.768 36.533 381.052 35.9447 382.406 35.4813C383.797 35.0178 385.223 34.7861 386.684 34.7861C388.503 34.7861 390.143 35.107 391.604 35.7487C393.102 36.3904 394.367 37.2995 395.401 38.4759C396.471 39.6524 397.291 41.0606 397.861 42.7005C398.467 44.3405 398.77 46.1586 398.77 48.1551V74.2513H386.043V50.0267C386.043 48.9216 385.882 47.959 385.561 47.139C385.276 46.2834 384.866 45.5882 384.332 45.0535C383.832 44.4831 383.226 44.0553 382.513 43.7701C381.8 43.4849 381.034 43.3422 380.214 43.3422C378.895 43.3422 377.629 43.6809 376.417 44.3583C375.205 45 374.011 45.82 372.834 46.8182V74.2513H360.16ZM439.358 67.0321C440.499 67.0321 441.604 66.9073 442.674 66.6578C443.708 66.4082 444.635 66.016 445.455 65.4813C446.239 64.9465 446.881 64.2513 447.38 63.3957C447.879 62.5758 448.128 61.5954 448.128 60.4545C448.128 59.0998 447.79 57.9412 447.112 56.9786C446.399 56.016 445.49 55.1783 444.385 54.4652C443.244 53.7522 441.961 53.0927 440.535 52.4866C439.073 51.9162 437.594 51.3102 436.096 50.6684C434.599 49.9911 433.137 49.2602 431.711 48.4759C430.285 47.6916 429.002 46.7469 427.861 45.6417C426.756 44.5009 425.847 43.164 425.134 41.631C424.456 40.0624 424.118 38.2086 424.118 36.0695C424.118 33.6096 424.599 31.3815 425.561 29.385C426.524 27.4242 427.879 25.7487 429.626 24.3583C431.373 22.9679 433.476 21.8984 435.936 21.1497C438.431 20.3654 441.194 19.9733 444.225 19.9733C445.08 19.9733 446.061 20.0089 447.166 20.0802C448.271 20.1515 449.447 20.2585 450.695 20.4011C451.979 20.5437 453.28 20.7398 454.599 20.9893C455.954 21.2389 457.273 21.5419 458.556 21.8984L456.684 30.508L456.043 30.7754C454.902 30.2763 453.761 29.8485 452.62 29.492C451.479 29.1355 450.392 28.8324 449.358 28.5829C448.289 28.369 447.291 28.2086 446.364 28.1016C445.437 27.9947 444.617 27.9412 443.904 27.9412C441.551 27.9412 439.679 28.4403 438.289 29.4385C436.898 30.4367 436.203 31.8984 436.203 33.8235C436.203 35.2139 436.542 36.3726 437.219 37.2995C437.897 38.2264 438.806 39.0642 439.947 39.8128C441.087 40.5258 442.371 41.1854 443.797 41.7914C445.223 42.3975 446.684 43.0214 448.182 43.6631C449.679 44.3405 451.159 45.0713 452.62 45.8556C454.046 46.6043 455.33 47.549 456.471 48.6898C457.611 49.795 458.52 51.1141 459.198 52.6471C459.875 54.18 460.214 55.9982 460.214 58.1016C460.214 60.5971 459.733 62.8788 458.77 64.9465C457.772 67.0143 456.364 68.7968 454.545 70.2941C452.727 71.7914 450.535 72.9501 447.968 73.7701C445.401 74.59 442.513 75 439.305 75C438.093 75 436.809 74.9287 435.455 74.7861C434.064 74.6791 432.62 74.4831 431.123 74.1979C429.661 73.9483 428.164 73.5918 426.631 73.1283C425.134 72.7005 423.672 72.1658 422.246 71.5241L424.171 62.9144L424.92 62.5401C426.31 63.1818 427.629 63.7879 428.877 64.3583C430.16 64.9287 431.39 65.41 432.567 65.8021C433.743 66.1943 434.884 66.4973 435.989 66.7112C437.13 66.9251 438.253 67.0321 439.358 67.0321ZM486.631 75C483.28 75 480.356 74.4831 477.861 73.4492C475.365 72.4153 473.28 71.025 471.604 69.2781C469.964 67.5312 468.734 65.5169 467.914 63.2353C467.094 60.918 466.684 58.4938 466.684 55.9626C466.684 53.0036 467.219 50.2406 468.289 47.6738C469.358 45.0713 470.873 42.8253 472.834 40.9358C474.795 39.0463 477.166 37.549 479.947 36.4439C482.727 35.3387 485.829 34.7861 489.251 34.7861C492.567 34.7861 495.472 35.303 497.968 36.3369C500.463 37.3708 502.531 38.7433 504.171 40.4545C505.847 42.2014 507.094 44.2335 507.914 46.5508C508.77 48.8681 509.198 51.328 509.198 53.9305C509.198 56.9251 508.645 59.7237 507.54 62.3262C506.435 64.8931 504.902 67.1212 502.941 69.0107C500.945 70.9002 498.556 72.3619 495.775 73.3957C493.03 74.4652 489.982 75 486.631 75ZM488.182 67.139C489.323 67.139 490.374 66.8895 491.337 66.3904C492.299 65.9269 493.137 65.1961 493.85 64.1979C494.563 63.1996 495.116 61.9697 495.508 60.508C495.9 59.0463 496.096 57.3529 496.096 55.4278C496.096 53.574 495.918 51.8806 495.561 50.3476C495.169 48.779 494.617 47.4242 493.904 46.2834C493.191 45.1426 492.317 44.2513 491.283 43.6096C490.25 42.9679 489.055 42.6471 487.701 42.6471C486.524 42.6471 485.455 42.9144 484.492 43.4492C483.529 43.984 482.692 44.7504 481.979 45.7487C481.301 46.7469 480.766 47.9768 480.374 49.4385C479.982 50.9002 479.786 52.5758 479.786 54.4652C479.786 56.3904 479.982 58.1373 480.374 59.7059C480.766 61.2389 481.319 62.5758 482.032 63.7166C482.781 64.8218 483.672 65.6595 484.706 66.2299C485.74 66.836 486.898 67.139 488.182 67.139ZM520.963 74.2513V43.3957H513.209L514.011 37.8877L521.016 35.5348V34.3048C521.016 31.5954 521.408 29.082 522.192 26.7647C523.012 24.4118 524.207 22.3619 525.775 20.615C527.344 18.8681 529.287 17.4955 531.604 16.4973C533.886 15.4991 536.524 15 539.519 15C540.766 15 542.05 15.0891 543.369 15.2674C544.724 15.4456 546.025 15.713 547.273 16.0695L545.508 23.7166L544.866 24.0909C544.225 23.6988 543.494 23.3957 542.674 23.1818C541.889 22.9679 541.069 22.861 540.214 22.861C539.073 22.861 538.075 23.0927 537.219 23.5561C536.364 24.0553 535.686 24.7504 535.187 25.6417C534.652 26.5686 534.26 27.656 534.011 28.9037C533.761 30.1872 533.636 31.631 533.636 33.2353V35.5348H545.775L544.011 43.3957H533.636V74.2513H520.963ZM556.738 61.5775V43.3957H548.984L549.786 37.9947C551.069 37.5312 552.192 37.1034 553.155 36.7112C554.082 36.2834 554.92 35.8378 555.668 35.3743C556.381 34.8752 557.005 34.3583 557.54 33.8235C558.075 33.2531 558.592 32.5758 559.091 31.7914C559.59 31.0428 560.107 30.1872 560.642 29.2246C561.141 28.2264 561.729 27.0677 562.406 25.7487H568.663V35.5348H582.406L580.588 43.3957H569.465V59.9198C569.465 62.344 570.089 64.0553 571.337 65.0535C572.585 66.016 574.385 66.4973 576.738 66.4973C577.665 66.4973 578.61 66.4082 579.572 66.2299C580.535 66.0873 581.462 65.8378 582.353 65.4813V70.9358C580.463 72.3262 578.378 73.3423 576.096 73.984C573.815 74.6613 571.533 75 569.251 75C567.005 75 565.098 74.697 563.529 74.0909C561.925 73.4492 560.624 72.5401 559.626 71.3636C558.627 70.2228 557.897 68.8146 557.433 67.139C556.97 65.4991 556.738 63.6453 556.738 61.5775ZM587.059 35.5348H600.695L605.08 57.8342L606.31 65.2674H607.005L608.342 57.8877L613.476 36.7112H627.219L632.299 57.8342L633.69 65.2674H634.438L635.561 57.8877L640.107 35.5348H650.642L640.053 74.2513H625.722L620.963 55.1604L619.519 46.4973H618.77L617.166 55.2139L612.086 74.2513H597.647L587.059 35.5348ZM678.128 68.6898C677.38 69.2959 676.542 69.9554 675.615 70.6685C674.688 71.4171 673.69 72.1123 672.62 72.754C671.515 73.3957 670.339 73.9305 669.091 74.3583C667.843 74.7861 666.524 75 665.134 75C663.458 75 661.996 74.6792 660.749 74.0374C659.465 73.3957 658.396 72.5579 657.54 71.5241C656.72 70.4545 656.096 69.2602 655.668 67.9412C655.241 66.6221 655.027 65.303 655.027 63.984C655.027 62.2014 655.437 60.508 656.257 58.9038C657.077 57.3351 658.342 55.9626 660.053 54.7861C661.8 53.6096 664.011 52.6649 666.684 51.9519C669.358 51.2745 672.549 50.9358 676.257 50.9358H677.7V48.6898C677.7 46.7291 677.094 45.2317 675.882 44.1979C674.635 43.164 672.995 42.6471 670.963 42.6471C670.071 42.6471 669.127 42.754 668.128 42.9679C667.13 43.1818 666.132 43.4849 665.134 43.877C664.135 44.2692 663.173 44.7148 662.246 45.2139C661.283 45.713 660.392 46.2656 659.572 46.8717L658.877 46.4973L656.738 38.7968C659.875 37.3351 662.852 36.3012 665.668 35.6952C668.449 35.0891 671.194 34.7861 673.904 34.7861C676.221 34.7861 678.396 35 680.428 35.4278C682.424 35.8913 684.153 36.6043 685.615 37.5668C687.112 38.5651 688.289 39.8663 689.144 41.4706C690 43.0392 690.428 44.9822 690.428 47.2995V62.861C690.428 63.2888 690.463 63.7166 690.535 64.1444C690.606 64.5722 690.731 64.9644 690.909 65.3209C691.123 65.6774 691.39 65.9626 691.711 66.1765C692.068 66.3904 692.513 66.4973 693.048 66.4973C693.369 66.4973 693.708 66.4617 694.064 66.3904C694.385 66.3547 694.741 66.2478 695.134 66.0695V71.5241C693.565 72.5936 691.996 73.4492 690.428 74.0909C688.824 74.697 687.273 75 685.775 75C683.85 75 682.282 74.4474 681.069 73.3422C679.822 72.2727 678.841 70.7219 678.128 68.6898ZM677.7 63.877V55.4278H676.31C674.385 55.4278 672.799 55.5704 671.551 55.8556C670.267 56.1052 669.251 56.4973 668.503 57.0321C667.79 57.5312 667.273 58.1373 666.952 58.8503C666.667 59.5633 666.524 60.3832 666.524 61.3102C666.524 62.2371 666.667 63.0214 666.952 63.6631C667.201 64.3048 667.558 64.8396 668.021 65.2674C668.485 65.6952 669.002 65.9982 669.572 66.1765C670.178 66.3904 670.802 66.4973 671.444 66.4973C672.371 66.4973 673.351 66.3013 674.385 65.9091C675.419 65.5526 676.524 64.8752 677.7 63.877ZM701.979 74.2513V35.5348H712.674L714.225 46.8717C714.617 46.1943 715.009 45.4813 715.401 44.7326C715.793 44.0196 716.168 43.3422 716.524 42.7005C716.881 42.0945 717.201 41.5597 717.487 41.0963C717.772 40.6328 717.968 40.2941 718.075 40.0802C718.538 39.2959 719.055 38.5829 719.626 37.9412C720.232 37.2995 720.891 36.7469 721.604 36.2834C722.317 35.82 723.102 35.4635 723.957 35.2139C724.848 34.9287 725.829 34.7861 726.898 34.7861C727.611 34.7861 728.378 34.8752 729.198 35.0535C730.053 35.2317 730.838 35.5348 731.551 35.9626L730.16 47.3529C729.946 47.3173 729.643 47.2816 729.251 47.246C728.895 47.2103 728.52 47.1747 728.128 47.139C727.7 47.139 727.308 47.1212 726.952 47.0856C726.56 47.0856 726.221 47.0856 725.936 47.0856C723.476 47.0856 721.283 47.5668 719.358 48.5294C717.397 49.4563 715.829 50.6685 714.652 52.1658V74.2513H701.979ZM771.658 64.7861V70.2406C770.339 71.1676 769.002 71.934 767.647 72.5401C766.257 73.1462 764.884 73.6453 763.529 74.0374C762.139 74.3939 760.802 74.6435 759.519 74.7861C758.2 74.9287 756.916 75 755.668 75C752.567 75 749.768 74.59 747.273 73.7701C744.741 72.9144 742.602 71.7023 740.856 70.1337C739.109 68.5294 737.754 66.5686 736.791 64.2513C735.864 61.9341 735.401 59.2959 735.401 56.3369C735.401 52.9501 735.989 49.9376 737.166 47.2995C738.342 44.6257 739.911 42.3619 741.872 40.508C743.832 38.6898 746.096 37.2816 748.663 36.2834C751.266 35.2852 753.975 34.7861 756.791 34.7861C759.216 34.7861 761.462 35.1604 763.529 35.9091C765.597 36.6934 767.38 37.8164 768.877 39.2781C770.374 40.7398 771.533 42.5579 772.353 44.7326C773.173 46.943 773.583 49.4742 773.583 52.3262C773.583 53.2531 773.547 54.0909 773.476 54.8396C773.405 55.6239 773.298 56.2834 773.155 56.8182H748.449C748.449 58.5294 748.752 59.9911 749.358 61.2032C749.964 62.4153 750.82 63.4136 751.925 64.1979C753.03 64.9822 754.367 65.5704 755.936 65.9626C757.469 66.3191 759.198 66.4973 761.123 66.4973C761.8 66.4973 762.567 66.4617 763.422 66.3904C764.278 66.3547 765.151 66.2656 766.043 66.123C766.97 66.016 767.914 65.8556 768.877 65.6417C769.804 65.4278 770.731 65.1426 771.658 64.7861ZM748.449 52.3262H762.086C762.086 50.6506 761.925 49.2068 761.604 47.9947C761.283 46.7825 760.82 45.7843 760.214 45C759.643 44.18 758.948 43.5918 758.128 43.2353C757.344 42.8431 756.471 42.6471 755.508 42.6471C754.474 42.6471 753.512 42.861 752.62 43.2888C751.765 43.7522 751.034 44.3939 750.428 45.2139C749.786 46.0339 749.305 47.0499 748.984 48.262C748.627 49.4385 748.449 50.7932 748.449 52.3262Z" fill="white"/>
<path d="M0 90H90V0H0V90ZM54.4978 35.1788L74.0053 15.6713V74.3259H54.4978V35.1788ZM15.9975 15.6713L35.505 35.1788V74.3259H15.9975V15.6713Z" fill="white"/>
</g>
<defs>
<clipPath id="clip0_772_164">
<rect width="774" height="90" fill="white"/>
</clipPath>
</defs>
</svg>
