<svg width="687" height="100" viewBox="0 0 687 100" fill="none" xmlns="http://www.w3.org/2000/svg">
<g clip-path="url(#clip0_751_25)">
<path d="M125.474 26.5301H120.983V23.8549H135.792L147.926 63.9346L159.439 23.8549H174.63V26.5301H170.091L172.48 67.9951H176.493V70.6702H158.579V67.9951H162.4L160.298 34.89L150.028 70.6702H139.9L129.009 34.9855L127.146 67.9951H131.015V70.6702H119.12V67.9951H123.133L125.474 26.5301ZM208.404 37.2307H218.435V63.2658C218.435 64.476 218.722 65.4314 219.295 66.132C219.869 66.8008 220.76 67.1352 221.97 67.1352C223.181 67.1352 224.566 66.4983 226.126 65.2244L227.321 66.8008C223.754 70.0492 220.187 71.6734 216.62 71.6734C212.384 71.6734 209.773 69.6989 208.786 65.7499C206.493 69.6989 203.085 71.6734 198.563 71.6734C193.435 71.6734 189.534 70.0174 186.859 66.7053C184.184 63.3932 182.846 59.1575 182.846 53.9983C182.846 48.839 184.295 44.5874 187.193 41.2435C190.06 37.8995 194.072 36.2276 199.232 36.2276C203.212 36.2276 206.27 37.8199 208.404 41.0046V37.2307ZM195.076 43.8231C193.833 46.3072 193.212 49.683 193.212 53.9505C193.212 58.2498 193.833 61.6416 195.076 64.1256C196.349 66.6416 198.26 67.8995 200.808 67.8995C203.388 67.8995 205.346 66.6416 206.684 64.1256C208.053 61.5779 208.738 58.1862 208.738 53.9505C208.738 49.7148 208.053 46.339 206.684 43.8231C205.346 41.3072 203.388 40.0492 200.808 40.0492C198.26 40.0492 196.349 41.3072 195.076 43.8231ZM243.467 23.6161V40.9091C245.856 37.7881 249.55 36.2276 254.55 36.2276C257.416 36.2276 259.741 36.9441 261.525 38.3772C263.308 39.8104 264.2 41.6097 264.2 43.7753C264.2 45.9409 263.547 47.8677 262.241 49.5556C260.935 51.2435 259.168 52.6288 256.939 53.7116L260.951 64.1256C261.397 65.304 261.843 66.1002 262.289 66.5142C262.735 66.9282 263.372 67.1352 264.2 67.1352C265.665 67.1352 267.177 66.4983 268.738 65.2244L269.932 66.8008C266.365 70.0492 262.671 71.6734 258.849 71.6734C255.06 71.6734 252.528 70.0811 251.254 66.8963L246.238 54.046C248.69 53.4728 250.744 52.2626 252.4 50.4155C254.025 48.6002 254.837 46.8486 254.837 45.1607C254.837 43.4409 254.407 42.2148 253.547 41.4823C252.687 40.718 251.62 40.3358 250.346 40.3358C248.212 40.3358 246.525 41.1957 245.283 42.9155C244.072 44.6352 243.467 46.976 243.467 49.9377V70.6702H233.435V22.7562C230.983 23.3613 229.104 24.4441 227.798 26.0046L225.983 23.9505C227.289 22.6129 228.929 21.546 230.904 20.7498C232.878 19.9218 234.837 19.5078 236.779 19.5078C238.722 19.5078 240.314 19.9059 241.556 20.7021C242.83 21.4664 243.467 22.4377 243.467 23.6161ZM287.607 55.2403C290.505 54.9855 292.735 53.8868 294.295 51.9441C295.888 50.0014 296.684 48.0428 296.684 46.0683C296.684 44.062 296.254 42.5333 295.394 41.4823C294.502 40.3995 293.181 39.8581 291.429 39.8581C289.677 39.8581 287.99 41.1002 286.365 43.5842C284.773 46.1002 283.977 49.4441 283.977 53.6161C283.977 57.8199 284.741 61.1957 286.27 63.7435C287.767 66.2913 289.916 67.5651 292.719 67.5651C297.018 67.5651 300.665 65.8932 303.658 62.5492L305.521 63.7435C303.993 66.132 301.986 68.0588 299.502 69.5237C296.986 70.9569 294.168 71.6734 291.047 71.6734C285.76 71.6734 281.525 69.9377 278.34 66.4664C275.187 62.9632 273.611 58.7276 273.611 53.7594C273.611 48.8231 275.298 44.667 278.674 41.2913C282.018 37.9155 286.684 36.2276 292.671 36.2276C296.588 36.2276 299.662 37.1511 301.891 38.9983C304.12 40.8135 305.235 43.1225 305.235 45.925C305.235 48.7594 304.009 51.3709 301.556 53.7594C299.072 56.1161 295.792 57.2944 291.716 57.2944C290.346 57.2944 289.009 57.1511 287.703 56.8645L287.607 55.2403ZM335.474 36.2276C336.811 36.2276 337.48 37.5014 337.48 40.0492V63.2658C337.48 64.476 337.767 65.4314 338.34 66.132C338.913 66.8008 339.805 67.1352 341.015 67.1352C342.225 67.1352 343.611 66.4983 345.171 65.2244L346.365 66.8008C342.798 70.0492 339.232 71.6734 335.665 71.6734C330.187 71.6734 327.448 68.4091 327.448 61.8804V43.0588C325.346 43.9186 322.798 44.5078 319.805 44.8263C319.455 48.9027 318.276 52.9951 316.27 57.1034L313.547 56.2912C314.789 53.1384 315.458 49.3804 315.553 45.0174C313.865 45.0174 312.496 44.5237 311.445 43.5365C310.394 42.5492 309.869 41.339 309.869 39.9059C309.869 38.4409 310.362 37.2148 311.349 36.2276C312.369 35.2084 313.595 34.6989 315.028 34.6989C316.493 34.6989 317.719 35.2084 318.706 36.2276C319.662 37.2785 320.139 38.6002 320.139 40.1925H321.429C324.964 40.1925 328.706 39.2053 332.655 37.2307C333.961 36.562 334.9 36.2276 335.474 36.2276ZM374.407 56.4346V62.0715C374.407 63.7913 375.251 65.304 376.939 66.6097C378.626 67.9155 380.808 68.5683 383.483 68.5683C386.158 68.5683 388.276 67.9155 389.837 66.6097C391.397 65.304 392.177 63.5842 392.177 61.4505C392.177 58.7435 390.553 56.4983 387.305 54.7148L377.416 49.4123C371.716 46.3549 368.865 41.96 368.865 36.2276C368.865 32.597 370.203 29.46 372.878 26.8167C375.553 24.1734 379.534 22.8518 384.821 22.8518C388.388 22.8518 391.779 23.5683 394.996 25.0014C398.212 26.4346 399.821 28.1384 399.821 30.1129C399.821 30.8454 399.566 31.7053 399.056 32.6925L395.856 38.8549L393.515 38.1384V32.5014C393.515 30.4951 392.639 28.9186 390.888 27.7721C389.136 26.5938 387.034 26.0046 384.582 26.0046C382.162 26.0046 380.298 26.7212 378.993 28.1543C377.719 29.5874 377.082 31.2116 377.082 33.0269C377.082 36.6893 378.722 39.3963 382.002 41.1479L390.505 45.5906C396.97 48.9983 400.203 53.4569 400.203 58.9664C400.203 63.1702 398.626 66.339 395.474 68.4728C392.353 70.6065 388.388 71.6734 383.579 71.6734C379.948 71.6734 376.461 70.9728 373.117 69.5715C369.773 68.1384 368.101 66.4346 368.101 64.46C368.101 63.6957 368.356 62.8358 368.865 61.8804L372.066 55.718L374.407 56.4346ZM412.48 66.562C409.2 63.1543 407.56 58.9505 407.56 53.9505C407.56 48.9823 409.2 44.7944 412.48 41.3868C415.76 37.9473 420.028 36.2276 425.283 36.2276C430.537 36.2276 434.805 37.9473 438.085 41.3868C441.365 44.7944 443.005 48.9823 443.005 53.9505C443.005 58.9505 441.365 63.1543 438.085 66.562C434.805 69.9696 430.537 71.6734 425.283 71.6734C420.028 71.6734 415.76 69.9696 412.48 66.562ZM419.789 43.2498C418.547 46.0206 417.926 49.5874 417.926 53.9505C417.926 58.3454 418.547 61.9282 419.789 64.6989C421.063 67.5014 422.926 68.9027 425.378 68.9027C427.83 68.9027 429.677 67.5014 430.919 64.6989C432.162 61.9282 432.783 58.3454 432.783 53.9505C432.783 49.5874 432.162 46.0206 430.919 43.2498C429.677 40.4473 427.83 39.046 425.378 39.046C422.926 39.046 421.063 40.4473 419.789 43.2498ZM455.474 40.9091H449.98V38.1862H455.474V31.4505C455.474 27.9155 456.477 25.0492 458.483 22.8518C460.49 20.6225 463.722 19.5078 468.181 19.5078C470.346 19.5078 472.416 19.9218 474.391 20.7498C476.397 21.546 478.037 22.6129 479.311 23.9505L477.544 26.0046C475.601 24.3486 473.451 23.5205 471.095 23.5205C467.369 23.5205 465.505 25.9728 465.505 30.8772V38.1862H473.053V40.9091H465.505V79.5078H455.474V40.9091ZM483.802 40.9091H478.308V38.1862H483.802V28.5365H493.834V38.1862H501.381V40.9091H493.834V63.2658C493.834 64.476 494.12 65.4314 494.693 66.132C495.298 66.8008 496.19 67.1352 497.369 67.1352C498.579 67.1352 499.964 66.4983 501.525 65.2244L502.719 66.8008C499.152 70.0492 495.585 71.6734 492.018 71.6734C486.54 71.6734 483.802 68.4091 483.802 61.8804V40.9091ZM544.614 40.3358V62.597C544.614 64.0301 545.06 65.1129 545.951 65.8454C546.843 66.5779 547.958 66.9441 549.295 66.9441C552.098 66.9441 554.518 65.4792 556.556 62.5492C558.626 59.6511 559.662 56.0842 559.662 51.8486C559.662 49.683 559.232 47.4218 558.372 45.0651C557.576 45.6065 556.556 45.8772 555.314 45.8772C554.072 45.8772 552.942 45.3677 551.923 44.3486C550.935 43.3613 550.442 42.1511 550.442 40.718C550.442 39.2849 550.935 38.0747 551.923 37.0874C552.942 36.0683 554.2 35.5588 555.697 35.5588C557.225 35.5588 558.531 36.132 559.614 37.2785C560.697 38.425 561.493 39.9377 562.002 41.8167C562.798 45.0651 563.197 48.2498 563.197 51.3709C563.197 54.4919 562.814 57.2148 562.05 59.5397C561.286 61.8326 560.314 63.7116 559.136 65.1766C557.926 66.6097 556.556 67.8518 555.028 68.9027C552.321 70.7499 549.598 71.6734 546.859 71.6734C541.572 71.6734 537.926 69.9377 535.919 66.4664C534.455 68.1543 532.719 69.4441 530.712 70.3358C528.706 71.2276 526.843 71.6734 525.123 71.6734C521.333 71.6734 518.34 70.7339 516.142 68.8549C513.945 66.9441 512.846 64.1734 512.846 60.5428V39.476C510.394 40.0811 508.515 41.1639 507.209 42.7244L505.394 40.6702C506.7 39.3327 508.34 38.2658 510.314 37.4696C512.321 36.6416 514.295 36.2276 516.238 36.2276C518.149 36.2276 519.741 36.6256 521.015 37.4218C522.257 38.1862 522.878 39.1575 522.878 40.3358V62.597C522.878 64.0301 523.324 65.1129 524.216 65.8454C525.107 66.5779 526.222 66.9441 527.56 66.9441C530.585 66.9441 532.942 65.4473 534.63 62.4537C534.598 62.0715 534.582 61.4346 534.582 60.5428V39.476C532.13 40.0811 530.251 41.1639 528.945 42.7244L527.13 40.6702C528.435 39.3327 530.076 38.2658 532.05 37.4696C534.056 36.6416 536.015 36.2276 537.926 36.2276C539.869 36.2276 541.477 36.6256 542.751 37.4218C543.993 38.1862 544.614 39.1575 544.614 40.3358ZM597.114 37.2307H607.146V63.2658C607.146 64.476 607.432 65.4314 608.005 66.132C608.579 66.8008 609.47 67.1352 610.681 67.1352C611.891 67.1352 613.276 66.4983 614.837 65.2244L616.031 66.8008C612.464 70.0492 608.897 71.6734 605.33 71.6734C601.095 71.6734 598.483 69.6989 597.496 65.7499C595.171 69.6989 591.763 71.6734 587.273 71.6734C582.146 71.6734 578.244 70.0174 575.569 66.7053C572.894 63.3932 571.556 59.1575 571.556 53.9983C571.556 48.839 572.99 44.5874 575.856 41.2435C578.754 37.8995 582.783 36.2276 587.942 36.2276C591.923 36.2276 594.98 37.8199 597.114 41.0046V37.2307ZM583.786 43.8231C582.544 46.3072 581.923 49.683 581.923 53.9505C581.923 58.2498 582.544 61.6416 583.786 64.1256C585.028 66.6416 586.939 67.8995 589.518 67.8995C592.066 67.8995 594.025 66.6416 595.394 64.1256C596.763 61.5779 597.448 58.1862 597.448 53.9505C597.448 49.7148 596.763 46.339 595.394 43.8231C594.025 41.3072 592.066 40.0492 589.518 40.0492C586.939 40.0492 585.028 41.3072 583.786 43.8231ZM640.967 36.2276C642.305 36.2276 642.974 37.5014 642.974 40.0492V63.2658C642.974 64.476 643.26 65.4314 643.834 66.132C644.439 66.8008 645.33 67.1352 646.509 67.1352C647.719 67.1352 649.104 66.4983 650.665 65.2244L651.859 66.8008C648.292 70.0492 644.725 71.6734 641.158 71.6734C635.681 71.6734 632.942 68.4091 632.942 61.8804V43.0588C630.84 43.9186 628.308 44.5078 625.346 44.8263C624.964 48.9027 623.77 52.9951 621.763 57.1034L619.041 56.2912C620.283 53.1384 620.951 49.3804 621.047 45.0174C619.359 45.0174 617.99 44.5237 616.939 43.5365C615.888 42.5492 615.362 41.339 615.362 39.9059C615.362 38.4409 615.872 37.2148 616.891 36.2276C617.878 35.2084 619.104 34.6989 620.569 34.6989C622.002 34.6989 623.212 35.2084 624.2 36.2276C625.187 37.2785 625.681 38.6002 625.681 40.1925H626.923C630.458 40.1925 634.2 39.2053 638.149 37.2307C639.455 36.562 640.394 36.2276 640.967 36.2276ZM668.865 55.2403C671.763 54.9855 674.009 53.8868 675.601 51.9441C677.162 50.0014 677.942 48.0428 677.942 46.0683C677.942 44.062 677.512 42.5333 676.652 41.4823C675.792 40.3995 674.486 39.8581 672.735 39.8581C670.951 39.8581 669.263 41.1002 667.671 43.5842C666.047 46.1002 665.235 49.4441 665.235 53.6161C665.235 57.8199 665.999 61.1957 667.528 63.7435C669.056 66.2913 671.222 67.5651 674.025 67.5651C678.292 67.5651 681.923 65.8932 684.916 62.5492L686.779 63.7435C685.283 66.132 683.276 68.0588 680.76 69.5237C678.276 70.9569 675.474 71.6734 672.353 71.6734C667.034 71.6734 662.798 69.9377 659.646 66.4664C656.461 62.9632 654.869 58.7276 654.869 53.7594C654.869 48.8231 656.556 44.667 659.932 41.2913C663.308 37.9155 667.974 36.2276 673.929 36.2276C677.878 36.2276 680.967 37.1511 683.197 38.9983C685.426 40.8135 686.54 43.1225 686.54 45.925C686.54 48.7594 685.298 51.3709 682.814 53.7594C680.33 56.1161 677.066 57.2944 673.021 57.2944C671.62 57.2944 670.283 57.1511 669.009 56.8645L668.865 55.2403Z" fill="#FFD009"/>
<path d="M63.5634 27.2197C61.5705 27.2197 59.5776 27.849 58.0043 28.8979L45.8372 16.6259C46.8861 15.0526 47.5154 13.1646 47.5154 11.0668C47.5154 5.50769 43.0052 0.892578 37.3412 0.892578C31.6772 0.892578 27.167 5.4028 27.167 11.0668C27.167 13.0597 27.7963 15.0526 28.8452 16.6259L16.5732 28.793C14.9998 27.7441 13.1118 27.1148 11.0141 27.1148C5.45496 27.1148 0.839844 31.625 0.839844 37.289C0.839844 42.953 5.35007 47.4632 11.0141 47.4632C16.6781 47.4632 21.1883 42.953 21.1883 37.289C21.1883 35.2961 20.559 33.3032 19.5101 31.7299L31.6772 19.5628C33.2505 20.6117 35.1385 21.241 37.2363 21.241C39.2292 21.241 41.2221 20.6117 42.7954 19.5628L54.9625 31.7299C53.9136 33.3032 53.2843 35.1912 53.2843 37.289C53.2843 42.8481 57.7945 47.4632 63.4585 47.4632C69.0176 47.4632 73.6327 42.953 73.6327 37.289C73.6327 31.625 69.1225 27.2197 63.5634 27.2197ZM89.7856 53.4419C84.2265 53.4419 79.6114 57.9521 79.6114 63.6161C79.6114 65.609 80.2407 67.6019 81.2896 69.1752L69.0176 81.2375C67.4443 80.1886 65.5563 79.5592 63.4585 79.5592C61.4656 79.5592 59.4727 80.1886 57.8994 81.2375L45.8372 69.0704C46.8861 67.497 47.5154 65.609 47.5154 63.5112C47.5154 57.9521 43.0052 53.337 37.3412 53.337C31.6772 53.337 27.167 57.8472 27.167 63.5112C27.167 69.0704 31.6772 73.6855 37.3412 73.6855C39.3341 73.6855 41.327 73.0561 42.9003 72.0072L55.0674 84.1744C54.0185 85.7477 53.3892 87.6357 53.3892 89.7335C53.3892 95.2926 57.8994 99.9077 63.5634 99.9077C69.1225 99.9077 73.7376 95.3975 73.7376 89.7335C73.7376 87.7406 73.1083 85.7477 72.0594 84.1744L84.2265 72.0072C85.7998 73.0561 87.6878 73.6855 89.7856 73.6855C95.3447 73.6855 99.9598 69.1752 99.9598 63.5112C99.855 57.9521 95.3447 53.4419 89.7856 53.4419Z" fill="#FFD009"/>
<path d="M37.3412 79.6641C35.3483 79.6641 33.3554 80.2935 31.7821 81.3424L19.615 69.0704C20.6638 67.497 21.2932 65.609 21.2932 63.5112C21.2932 61.5184 20.6638 59.5255 19.615 57.9521L31.7821 45.785C33.3554 46.8339 35.2434 47.4632 37.3412 47.4632C42.9003 47.4632 47.5154 42.953 47.5154 37.289C47.5154 31.625 43.0052 27.1148 37.3412 27.1148C31.6772 27.1148 27.167 31.625 27.167 37.289C27.167 39.2819 27.7963 41.2748 28.8452 42.8481L16.5732 55.0152C14.9998 53.9664 13.1118 53.337 11.0141 53.337C5.45496 53.337 0.839844 57.8472 0.839844 63.5112C0.839844 69.0704 5.35007 73.6855 11.0141 73.6855C13.007 73.6855 14.9998 73.0561 16.5732 72.0072L28.7403 84.1744C27.6914 85.7477 27.0621 87.6357 27.0621 89.7335C27.0621 95.2926 31.5723 99.9077 37.2363 99.9077C42.9003 99.9077 47.4105 95.3975 47.4105 89.7335C47.4105 84.1744 42.9003 79.6641 37.3412 79.6641ZM89.7856 27.2197C87.7927 27.2197 85.7998 27.849 84.2265 28.8979L72.0594 16.6259C73.1083 15.0526 73.7376 13.1646 73.7376 11.0668C73.7376 5.50769 69.2274 0.892578 63.5634 0.892578C58.0043 0.892578 53.3892 5.4028 53.3892 11.0668C53.3892 16.7308 57.8994 21.241 63.5634 21.241C65.5563 21.241 67.5492 20.6117 69.1225 19.5628L81.2896 31.7299C80.2407 33.3032 79.6114 35.1912 79.6114 37.289C79.6114 39.2819 80.2407 41.2748 81.2896 42.8481L69.0176 55.0152C67.4443 53.9664 65.5563 53.337 63.4585 53.337C57.8994 53.337 53.2843 57.8472 53.2843 63.5112C53.2843 69.0704 57.7945 73.6855 63.4585 73.6855C69.0176 73.6855 73.6327 69.1752 73.6327 63.5112C73.6327 61.5184 73.0034 59.5255 71.9545 57.9521L84.1216 45.785C85.695 46.8339 87.583 47.4632 89.6807 47.4632C95.2398 47.4632 99.855 42.953 99.855 37.289C99.855 31.625 95.3447 27.2197 89.7856 27.2197Z" fill="#FFD009"/>
</g>
<defs>
<clipPath id="clip0_751_25">
<rect width="687" height="100" fill="white"/>
</clipPath>
</defs>
</svg>
