<svg width="687" height="100" viewBox="0 0 687 100" fill="none" xmlns="http://www.w3.org/2000/svg">
<g clip-path="url(#clip0_751_53)">
<path d="M125.473 26.5301H120.982V23.8549H135.791L147.925 63.9346L159.438 23.8549H174.629V26.5301H170.09L172.479 67.9951H176.492V70.6702H158.578V67.9951H162.399L160.297 34.89L150.027 70.6702H139.899L129.008 34.9855L127.145 67.9951H131.014V70.6702H119.119V67.9951H123.132L125.473 26.5301ZM208.403 37.2307H218.434V63.2658C218.434 64.476 218.721 65.4314 219.294 66.132C219.868 66.8008 220.759 67.1352 221.969 67.1352C223.18 67.1352 224.565 66.4983 226.126 65.2244L227.32 66.8008C223.753 70.0492 220.186 71.6734 216.619 71.6734C212.383 71.6734 209.772 69.6989 208.785 65.7499C206.492 69.6989 203.084 71.6734 198.562 71.6734C193.434 71.6734 189.533 70.0174 186.858 66.7053C184.183 63.3932 182.845 59.1575 182.845 53.9983C182.845 48.839 184.294 44.5874 187.192 41.2435C190.059 37.8995 194.071 36.2276 199.231 36.2276C203.211 36.2276 206.269 37.8199 208.403 41.0046V37.2307ZM195.075 43.8231C193.833 46.3072 193.211 49.683 193.211 53.9505C193.211 58.2498 193.833 61.6416 195.075 64.1256C196.348 66.6416 198.259 67.8995 200.807 67.8995C203.387 67.8995 205.345 66.6416 206.683 64.1256C208.052 61.5779 208.737 58.1862 208.737 53.9505C208.737 49.7148 208.052 46.339 206.683 43.8231C205.345 41.3072 203.387 40.0492 200.807 40.0492C198.259 40.0492 196.348 41.3072 195.075 43.8231ZM243.466 23.6161V40.9091C245.855 37.7881 249.549 36.2276 254.549 36.2276C257.415 36.2276 259.74 36.9441 261.524 38.3772C263.307 39.8104 264.199 41.6097 264.199 43.7753C264.199 45.9409 263.546 47.8677 262.24 49.5556C260.934 51.2435 259.167 52.6288 256.938 53.7116L260.95 64.1256C261.396 65.304 261.842 66.1002 262.288 66.5142C262.734 66.9282 263.371 67.1352 264.199 67.1352C265.664 67.1352 267.176 66.4983 268.737 65.2244L269.931 66.8008C266.364 70.0492 262.67 71.6734 258.848 71.6734C255.059 71.6734 252.527 70.0811 251.253 66.8963L246.237 54.046C248.689 53.4728 250.743 52.2626 252.399 50.4155C254.024 48.6002 254.836 46.8486 254.836 45.1607C254.836 43.4409 254.406 42.2148 253.546 41.4823C252.686 40.718 251.619 40.3358 250.345 40.3358C248.211 40.3358 246.524 41.1957 245.282 42.9155C244.071 44.6352 243.466 46.976 243.466 49.9377V70.6702H233.434V22.7562C230.982 23.3613 229.103 24.4441 227.797 26.0046L225.982 23.9505C227.288 22.6129 228.928 21.546 230.903 20.7498C232.877 19.9218 234.836 19.5078 236.778 19.5078C238.721 19.5078 240.313 19.9059 241.555 20.7021C242.829 21.4664 243.466 22.4377 243.466 23.6161ZM287.606 55.2403C290.504 54.9855 292.734 53.8868 294.294 51.9441C295.887 50.0014 296.683 48.0428 296.683 46.0683C296.683 44.062 296.253 42.5333 295.393 41.4823C294.501 40.3995 293.18 39.8581 291.428 39.8581C289.676 39.8581 287.989 41.1002 286.364 43.5842C284.772 46.1002 283.976 49.4441 283.976 53.6161C283.976 57.8199 284.74 61.1957 286.269 63.7435C287.766 66.2913 289.915 67.5651 292.718 67.5651C297.017 67.5651 300.664 65.8932 303.657 62.5492L305.52 63.7435C303.992 66.132 301.985 68.0588 299.501 69.5237C296.985 70.9569 294.167 71.6734 291.046 71.6734C285.759 71.6734 281.524 69.9377 278.339 66.4664C275.186 62.9632 273.61 58.7276 273.61 53.7594C273.61 48.8231 275.297 44.667 278.673 41.2913C282.017 37.9155 286.683 36.2276 292.67 36.2276C296.587 36.2276 299.661 37.1511 301.89 38.9983C304.119 40.8135 305.234 43.1225 305.234 45.925C305.234 48.7594 304.008 51.3709 301.555 53.7594C299.071 56.1161 295.791 57.2944 291.715 57.2944C290.345 57.2944 289.008 57.1511 287.702 56.8645L287.606 55.2403ZM335.473 36.2276C336.81 36.2276 337.479 37.5014 337.479 40.0492V63.2658C337.479 64.476 337.766 65.4314 338.339 66.132C338.912 66.8008 339.804 67.1352 341.014 67.1352C342.224 67.1352 343.61 66.4983 345.17 65.2244L346.364 66.8008C342.797 70.0492 339.231 71.6734 335.664 71.6734C330.186 71.6734 327.447 68.4091 327.447 61.8804V43.0588C325.345 43.9186 322.797 44.5078 319.804 44.8263C319.454 48.9027 318.275 52.9951 316.269 57.1034L313.546 56.2912C314.788 53.1384 315.457 49.3804 315.552 45.0174C313.864 45.0174 312.495 44.5237 311.444 43.5365C310.393 42.5492 309.868 41.339 309.868 39.9059C309.868 38.4409 310.361 37.2148 311.348 36.2276C312.368 35.2084 313.594 34.6989 315.027 34.6989C316.492 34.6989 317.718 35.2084 318.705 36.2276C319.661 37.2785 320.138 38.6002 320.138 40.1925H321.428C324.963 40.1925 328.705 39.2053 332.654 37.2307C333.96 36.562 334.899 36.2276 335.473 36.2276ZM374.406 56.4346V62.0715C374.406 63.7913 375.25 65.304 376.938 66.6097C378.626 67.9155 380.807 68.5683 383.482 68.5683C386.157 68.5683 388.275 67.9155 389.836 66.6097C391.396 65.304 392.176 63.5842 392.176 61.4505C392.176 58.7435 390.552 56.4983 387.304 54.7148L377.415 49.4123C371.715 46.3549 368.864 41.96 368.864 36.2276C368.864 32.597 370.202 29.46 372.877 26.8167C375.552 24.1734 379.533 22.8518 384.82 22.8518C388.387 22.8518 391.778 23.5683 394.995 25.0014C398.211 26.4346 399.82 28.1384 399.82 30.1129C399.82 30.8454 399.565 31.7053 399.055 32.6925L395.855 38.8549L393.514 38.1384V32.5014C393.514 30.4951 392.638 28.9186 390.887 27.7721C389.135 26.5938 387.033 26.0046 384.581 26.0046C382.161 26.0046 380.297 26.7212 378.992 28.1543C377.718 29.5874 377.081 31.2116 377.081 33.0269C377.081 36.6893 378.721 39.3963 382.001 41.1479L390.504 45.5906C396.969 48.9983 400.202 53.4569 400.202 58.9664C400.202 63.1702 398.626 66.339 395.473 68.4728C392.352 70.6065 388.387 71.6734 383.578 71.6734C379.947 71.6734 376.46 70.9728 373.116 69.5715C369.772 68.1384 368.1 66.4346 368.1 64.46C368.1 63.6957 368.355 62.8358 368.864 61.8804L372.065 55.718L374.406 56.4346ZM412.479 66.562C409.199 63.1543 407.559 58.9505 407.559 53.9505C407.559 48.9823 409.199 44.7944 412.479 41.3868C415.759 37.9473 420.027 36.2276 425.282 36.2276C430.536 36.2276 434.804 37.9473 438.084 41.3868C441.364 44.7944 443.005 48.9823 443.005 53.9505C443.005 58.9505 441.364 63.1543 438.084 66.562C434.804 69.9696 430.536 71.6734 425.282 71.6734C420.027 71.6734 415.759 69.9696 412.479 66.562ZM419.788 43.2498C418.546 46.0206 417.925 49.5874 417.925 53.9505C417.925 58.3454 418.546 61.9282 419.788 64.6989C421.062 67.5014 422.925 68.9027 425.377 68.9027C427.829 68.9027 429.676 67.5014 430.919 64.6989C432.161 61.9282 432.782 58.3454 432.782 53.9505C432.782 49.5874 432.161 46.0206 430.919 43.2498C429.676 40.4473 427.829 39.046 425.377 39.046C422.925 39.046 421.062 40.4473 419.788 43.2498ZM455.473 40.9091H449.979V38.1862H455.473V31.4505C455.473 27.9155 456.476 25.0492 458.482 22.8518C460.489 20.6225 463.721 19.5078 468.18 19.5078C470.345 19.5078 472.415 19.9218 474.39 20.7498C476.396 21.546 478.036 22.6129 479.31 23.9505L477.543 26.0046C475.6 24.3486 473.45 23.5205 471.094 23.5205C467.368 23.5205 465.504 25.9728 465.504 30.8772V38.1862H473.052V40.9091H465.504V79.5078H455.473V40.9091ZM483.801 40.9091H478.307V38.1862H483.801V28.5365H493.833V38.1862H501.38V40.9091H493.833V63.2658C493.833 64.476 494.119 65.4314 494.692 66.132C495.297 66.8008 496.189 67.1352 497.368 67.1352C498.578 67.1352 499.963 66.4983 501.524 65.2244L502.718 66.8008C499.151 70.0492 495.584 71.6734 492.017 71.6734C486.54 71.6734 483.801 68.4091 483.801 61.8804V40.9091ZM544.613 40.3358V62.597C544.613 64.0301 545.059 65.1129 545.95 65.8454C546.842 66.5779 547.957 66.9441 549.294 66.9441C552.097 66.9441 554.517 65.4792 556.555 62.5492C558.626 59.6511 559.661 56.0842 559.661 51.8486C559.661 49.683 559.231 47.4218 558.371 45.0651C557.575 45.6065 556.555 45.8772 555.313 45.8772C554.071 45.8772 552.941 45.3677 551.922 44.3486C550.934 43.3613 550.441 42.1511 550.441 40.718C550.441 39.2849 550.934 38.0747 551.922 37.0874C552.941 36.0683 554.199 35.5588 555.696 35.5588C557.224 35.5588 558.53 36.132 559.613 37.2785C560.696 38.425 561.492 39.9377 562.001 41.8167C562.797 45.0651 563.196 48.2498 563.196 51.3709C563.196 54.4919 562.813 57.2148 562.049 59.5397C561.285 61.8326 560.313 63.7116 559.135 65.1766C557.925 66.6097 556.555 67.8518 555.027 68.9027C552.32 70.7499 549.597 71.6734 546.858 71.6734C541.571 71.6734 537.925 69.9377 535.919 66.4664C534.454 68.1543 532.718 69.4441 530.712 70.3358C528.705 71.2276 526.842 71.6734 525.122 71.6734C521.333 71.6734 518.339 70.7339 516.141 68.8549C513.944 66.9441 512.845 64.1734 512.845 60.5428V39.476C510.393 40.0811 508.514 41.1639 507.208 42.7244L505.393 40.6702C506.699 39.3327 508.339 38.2658 510.313 37.4696C512.32 36.6416 514.294 36.2276 516.237 36.2276C518.148 36.2276 519.74 36.6256 521.014 37.4218C522.256 38.1862 522.877 39.1575 522.877 40.3358V62.597C522.877 64.0301 523.323 65.1129 524.215 65.8454C525.106 66.5779 526.221 66.9441 527.559 66.9441C530.584 66.9441 532.941 65.4473 534.629 62.4537C534.597 62.0715 534.581 61.4346 534.581 60.5428V39.476C532.129 40.0811 530.25 41.1639 528.944 42.7244L527.129 40.6702C528.434 39.3327 530.075 38.2658 532.049 37.4696C534.055 36.6416 536.014 36.2276 537.925 36.2276C539.868 36.2276 541.476 36.6256 542.75 37.4218C543.992 38.1862 544.613 39.1575 544.613 40.3358ZM597.113 37.2307H607.145V63.2658C607.145 64.476 607.431 65.4314 608.005 66.132C608.578 66.8008 609.469 67.1352 610.68 67.1352C611.89 67.1352 613.275 66.4983 614.836 65.2244L616.03 66.8008C612.463 70.0492 608.896 71.6734 605.329 71.6734C601.094 71.6734 598.482 69.6989 597.495 65.7499C595.17 69.6989 591.762 71.6734 587.272 71.6734C582.145 71.6734 578.243 70.0174 575.568 66.7053C572.893 63.3932 571.555 59.1575 571.555 53.9983C571.555 48.839 572.989 44.5874 575.855 41.2435C578.753 37.8995 582.782 36.2276 587.941 36.2276C591.922 36.2276 594.979 37.8199 597.113 41.0046V37.2307ZM583.785 43.8231C582.543 46.3072 581.922 49.683 581.922 53.9505C581.922 58.2498 582.543 61.6416 583.785 64.1256C585.027 66.6416 586.938 67.8995 589.517 67.8995C592.065 67.8995 594.024 66.6416 595.393 64.1256C596.762 61.5779 597.447 58.1862 597.447 53.9505C597.447 49.7148 596.762 46.339 595.393 43.8231C594.024 41.3072 592.065 40.0492 589.517 40.0492C586.938 40.0492 585.027 41.3072 583.785 43.8231ZM640.966 36.2276C642.304 36.2276 642.973 37.5014 642.973 40.0492V63.2658C642.973 64.476 643.259 65.4314 643.833 66.132C644.438 66.8008 645.329 67.1352 646.508 67.1352C647.718 67.1352 649.103 66.4983 650.664 65.2244L651.858 66.8008C648.291 70.0492 644.724 71.6734 641.157 71.6734C635.68 71.6734 632.941 68.4091 632.941 61.8804V43.0588C630.839 43.9186 628.307 44.5078 625.345 44.8263C624.963 48.9027 623.769 52.9951 621.762 57.1034L619.04 56.2912C620.282 53.1384 620.95 49.3804 621.046 45.0174C619.358 45.0174 617.989 44.5237 616.938 43.5365C615.887 42.5492 615.361 41.339 615.361 39.9059C615.361 38.4409 615.871 37.2148 616.89 36.2276C617.877 35.2084 619.103 34.6989 620.568 34.6989C622.001 34.6989 623.212 35.2084 624.199 36.2276C625.186 37.2785 625.68 38.6002 625.68 40.1925H626.922C630.457 40.1925 634.199 39.2053 638.148 37.2307C639.454 36.562 640.393 36.2276 640.966 36.2276ZM668.864 55.2403C671.762 54.9855 674.008 53.8868 675.6 51.9441C677.161 50.0014 677.941 48.0428 677.941 46.0683C677.941 44.062 677.511 42.5333 676.651 41.4823C675.791 40.3995 674.485 39.8581 672.734 39.8581C670.95 39.8581 669.262 41.1002 667.67 43.5842C666.046 46.1002 665.234 49.4441 665.234 53.6161C665.234 57.8199 665.998 61.1957 667.527 63.7435C669.055 66.2913 671.221 67.5651 674.024 67.5651C678.291 67.5651 681.922 65.8932 684.915 62.5492L686.778 63.7435C685.282 66.132 683.275 68.0588 680.759 69.5237C678.275 70.9569 675.473 71.6734 672.352 71.6734C667.033 71.6734 662.797 69.9377 659.645 66.4664C656.46 62.9632 654.868 58.7276 654.868 53.7594C654.868 48.8231 656.555 44.667 659.931 41.2913C663.307 37.9155 667.973 36.2276 673.928 36.2276C677.877 36.2276 680.966 37.1511 683.196 38.9983C685.425 40.8135 686.54 43.1225 686.54 45.925C686.54 48.7594 685.297 51.3709 682.813 53.7594C680.329 56.1161 677.065 57.2944 673.02 57.2944C671.619 57.2944 670.282 57.1511 669.008 56.8645L668.864 55.2403Z" fill="white"/>
<path d="M63.5634 27.2197C61.5705 27.2197 59.5776 27.849 58.0043 28.8979L45.8372 16.6259C46.8861 15.0526 47.5154 13.1646 47.5154 11.0668C47.5154 5.50769 43.0052 0.892578 37.3412 0.892578C31.6772 0.892578 27.167 5.4028 27.167 11.0668C27.167 13.0597 27.7963 15.0526 28.8452 16.6259L16.5732 28.793C14.9998 27.7441 13.1118 27.1148 11.0141 27.1148C5.45496 27.1148 0.839844 31.625 0.839844 37.289C0.839844 42.953 5.35007 47.4632 11.0141 47.4632C16.6781 47.4632 21.1883 42.953 21.1883 37.289C21.1883 35.2961 20.559 33.3032 19.5101 31.7299L31.6772 19.5628C33.2505 20.6117 35.1385 21.241 37.2363 21.241C39.2292 21.241 41.2221 20.6117 42.7954 19.5628L54.9625 31.7299C53.9136 33.3032 53.2843 35.1912 53.2843 37.289C53.2843 42.8481 57.7945 47.4632 63.4585 47.4632C69.0176 47.4632 73.6327 42.953 73.6327 37.289C73.6327 31.625 69.1225 27.2197 63.5634 27.2197ZM89.7856 53.4419C84.2265 53.4419 79.6114 57.9521 79.6114 63.6161C79.6114 65.609 80.2407 67.6019 81.2896 69.1752L69.0176 81.2375C67.4443 80.1886 65.5563 79.5592 63.4585 79.5592C61.4656 79.5592 59.4727 80.1886 57.8994 81.2375L45.8372 69.0704C46.8861 67.497 47.5154 65.609 47.5154 63.5112C47.5154 57.9521 43.0052 53.337 37.3412 53.337C31.6772 53.337 27.167 57.8472 27.167 63.5112C27.167 69.0704 31.6772 73.6855 37.3412 73.6855C39.3341 73.6855 41.327 73.0561 42.9003 72.0072L55.0674 84.1744C54.0185 85.7477 53.3892 87.6357 53.3892 89.7335C53.3892 95.2926 57.8994 99.9077 63.5634 99.9077C69.1225 99.9077 73.7376 95.3975 73.7376 89.7335C73.7376 87.7406 73.1083 85.7477 72.0594 84.1744L84.2265 72.0072C85.7998 73.0561 87.6878 73.6855 89.7856 73.6855C95.3447 73.6855 99.9598 69.1752 99.9598 63.5112C99.855 57.9521 95.3447 53.4419 89.7856 53.4419Z" fill="#FFD009"/>
<path d="M37.3412 79.6641C35.3483 79.6641 33.3554 80.2935 31.7821 81.3424L19.615 69.0704C20.6638 67.497 21.2932 65.609 21.2932 63.5112C21.2932 61.5184 20.6638 59.5255 19.615 57.9521L31.7821 45.785C33.3554 46.8339 35.2434 47.4632 37.3412 47.4632C42.9003 47.4632 47.5154 42.953 47.5154 37.289C47.5154 31.625 43.0052 27.1148 37.3412 27.1148C31.6772 27.1148 27.167 31.625 27.167 37.289C27.167 39.2819 27.7963 41.2748 28.8452 42.8481L16.5732 55.0152C14.9998 53.9664 13.1118 53.337 11.0141 53.337C5.45496 53.337 0.839844 57.8472 0.839844 63.5112C0.839844 69.0704 5.35007 73.6855 11.0141 73.6855C13.007 73.6855 14.9998 73.0561 16.5732 72.0072L28.7403 84.1744C27.6914 85.7477 27.0621 87.6357 27.0621 89.7335C27.0621 95.2926 31.5723 99.9077 37.2363 99.9077C42.9003 99.9077 47.4105 95.3975 47.4105 89.7335C47.4105 84.1744 42.9003 79.6641 37.3412 79.6641ZM89.7856 27.2197C87.7927 27.2197 85.7998 27.849 84.2265 28.8979L72.0594 16.6259C73.1083 15.0526 73.7376 13.1646 73.7376 11.0668C73.7376 5.50769 69.2274 0.892578 63.5634 0.892578C58.0043 0.892578 53.3892 5.4028 53.3892 11.0668C53.3892 16.7308 57.8994 21.241 63.5634 21.241C65.5563 21.241 67.5492 20.6117 69.1225 19.5628L81.2896 31.7299C80.2407 33.3032 79.6114 35.1912 79.6114 37.289C79.6114 39.2819 80.2407 41.2748 81.2896 42.8481L69.0176 55.0152C67.4443 53.9664 65.5563 53.337 63.4585 53.337C57.8994 53.337 53.2843 57.8472 53.2843 63.5112C53.2843 69.0704 57.7945 73.6855 63.4585 73.6855C69.0176 73.6855 73.6327 69.1752 73.6327 63.5112C73.6327 61.5184 73.0034 59.5255 71.9545 57.9521L84.1216 45.785C85.695 46.8339 87.583 47.4632 89.6807 47.4632C95.2398 47.4632 99.855 42.953 99.855 37.289C99.855 31.625 95.3447 27.2197 89.7856 27.2197Z" fill="#FFD009"/>
</g>
<defs>
<clipPath id="clip0_751_53">
<rect width="687" height="100" fill="white"/>
</clipPath>
</defs>
</svg>
